<?xml version="1.0" encoding="UTF-8" standalone="no"?>
<svg
   width="275"
   height="150"
   viewBox="0 0 275 150"
   fill="none"
   version="1.1"
   id="svg460"
   sodipodi:docname="Frame 1982247717.svg"
   inkscape:version="1.4 (86a8ad7, 2024-10-11)"
   xmlns:inkscape="http://www.inkscape.org/namespaces/inkscape"
   xmlns:sodipodi="http://sodipodi.sourceforge.net/DTD/sodipodi-0.dtd"
   xmlns="http://www.w3.org/2000/svg"
   xmlns:svg="http://www.w3.org/2000/svg">
  <defs
     id="defs460" />
  <sodipodi:namedview
     id="namedview460"
     pagecolor="#ffffff"
     bordercolor="#000000"
     borderopacity="0.25"
     inkscape:showpageshadow="2"
     inkscape:pageopacity="0.0"
     inkscape:pagecheckerboard="0"
     inkscape:deskcolor="#d1d1d1"
     inkscape:zoom="0.93578364"
     inkscape:cx="549.27227"
     inkscape:cy="33.661627"
     inkscape:window-width="1920"
     inkscape:window-height="1009"
     inkscape:window-x="-8"
     inkscape:window-y="-8"
     inkscape:window-maximized="1"
     inkscape:current-layer="g460" />
  <g
     id="g460">
    <g
       opacity="0.3"
       id="g105"
       transform="translate(-298.80273,1.0686231)">
      <path
         d="m 604.543,129.374 c 0,-0.531 -0.284,-1.008 -0.723,-1.211 l -5.267,-2.451 v 1.435 l 4.818,2.236 -4.818,2.234 v 1.435 l 5.269,-2.466 c 0.437,-0.204 0.721,-0.68 0.721,-1.212 z"
         fill="#6720ff"
         id="path99" />
      <path
         d="m 581.825,87.9762 c 0,-0.5313 -0.284,-1.0081 -0.723,-1.2114 l -5.268,-2.451 v 1.4346 l 4.819,2.2362 -4.819,2.2341 v 1.4346 l 5.27,-2.4657 c 0.437,-0.2043 0.721,-0.6801 0.721,-1.2114 z"
         fill="#6720ff"
         id="path100" />
      <path
         d="m 559.111,46.5768 c 0,-0.5313 -0.284,-1.0081 -0.724,-1.2114 l -5.267,-2.451 v 1.4346 l 4.818,2.2362 -4.818,2.2341 v 1.4346 l 5.269,-2.4657 c 0.438,-0.2044 0.722,-0.6801 0.722,-1.2114 z"
         fill="#6720ff"
         id="path101" />
      <path
         d="m 536.393,5.17666 c 0,-0.53129 -0.284,-1.00809 -0.724,-1.21138 l -5.267,-2.45106 v 1.43459 l 4.818,2.23623 -4.818,2.23415 v 1.43458 l 5.269,-2.46573 c 0.438,-0.20434 0.722,-0.68009 0.722,-1.21138 z"
         fill="#6720ff"
         id="path102" />
      <path
         d="m 593.53,108.675 c 0,-0.531 -0.284,-1.008 -0.724,-1.211 l -5.267,-2.451 v 1.434 l 4.818,2.236 -4.818,2.235 v 1.434 l 5.269,-2.466 c 0.438,-0.204 0.722,-0.68 0.722,-1.211 z"
         fill="#6720ff"
         id="path103" />
      <path
         d="m 570.815,67.276 c 0,-0.5313 -0.284,-1.0081 -0.723,-1.2114 l -5.267,-2.451 v 1.4346 l 4.818,2.2362 -4.818,2.2342 v 1.4345 l 5.269,-2.4657 c 0.437,-0.2043 0.721,-0.6801 0.721,-1.2114 z"
         fill="#6720ff"
         id="path104" />
      <path
         d="m 548.1,25.8766 c 0,-0.5313 -0.284,-1.0081 -0.723,-1.2114 l -5.267,-2.451 v 1.4346 l 4.818,2.2362 -4.818,2.2341 v 1.4346 l 5.269,-2.4657 c 0.437,-0.2043 0.721,-0.6801 0.721,-1.2114 z"
         fill="#6720ff"
         id="path105" />
    </g>
    <g
       opacity="0.25"
       id="g112"
       transform="translate(-298.80273,1.0686231)">
      <path
         d="m 581.754,129.374 c 0,-0.531 -0.284,-1.008 -0.724,-1.211 l -5.267,-2.451 v 1.435 l 4.819,2.236 -4.819,2.234 v 1.435 l 5.269,-2.466 c 0.438,-0.204 0.722,-0.68 0.722,-1.212 z"
         fill="#6720ff"
         id="path106" />
      <path
         d="m 559.032,87.9757 c 0,-0.5313 -0.284,-1.0081 -0.723,-1.2113 l -5.267,-2.4511 v 1.4346 l 4.818,2.2362 -4.818,2.2342 v 1.4345 l 5.269,-2.4657 c 0.437,-0.2043 0.721,-0.6801 0.721,-1.2114 z"
         fill="#6720ff"
         id="path107" />
      <path
         d="m 536.318,46.5763 c 0,-0.5313 -0.284,-1.0081 -0.724,-1.2114 l -5.267,-2.451 v 1.4346 l 4.818,2.2362 -4.818,2.2341 v 1.4346 l 5.269,-2.4657 c 0.438,-0.2043 0.722,-0.6801 0.722,-1.2114 z"
         fill="#6720ff"
         id="path108" />
      <path
         d="m 513.6,5.17666 c 0,-0.53129 -0.284,-1.00809 -0.723,-1.21138 l -5.268,-2.45106 v 1.43459 l 4.819,2.23623 -4.819,2.23415 v 1.43458 l 5.269,-2.46573 C 513.316,6.1837 513.6,5.70795 513.6,5.17666 Z"
         fill="#6720ff"
         id="path109" />
      <path
         d="m 570.737,108.676 c 0,-0.532 -0.284,-1.009 -0.723,-1.212 l -5.268,-2.451 v 1.435 l 4.819,2.236 -4.819,2.234 v 1.435 l 5.269,-2.466 c 0.438,-0.204 0.722,-0.68 0.722,-1.211 z"
         fill="#6720ff"
         id="path110" />
      <path
         d="m 548.019,67.276 c 0,-0.5313 -0.284,-1.0081 -0.723,-1.2114 l -5.268,-2.451 v 1.4346 l 4.819,2.2362 -4.819,2.2342 v 1.4345 l 5.27,-2.4657 c 0.437,-0.2043 0.721,-0.6801 0.721,-1.2114 z"
         fill="#6720ff"
         id="path111" />
      <path
         d="m 525.301,25.8775 c 0,-0.5313 -0.284,-1.0081 -0.724,-1.2114 l -5.267,-2.451 v 1.4346 l 4.818,2.2362 -4.818,2.2342 v 1.4345 l 5.269,-2.4657 c 0.438,-0.2043 0.722,-0.6801 0.722,-1.2114 z"
         fill="#6720ff"
         id="path112" />
    </g>
    <g
       opacity="0.2"
       id="g119"
       transform="translate(-298.80273,1.0686231)">
      <path
         d="m 558.957,129.375 c 0,-0.531 -0.284,-1.008 -0.723,-1.211 l -5.267,-2.451 v 1.434 l 4.818,2.237 -4.818,2.234 v 1.434 l 5.269,-2.465 c 0.437,-0.205 0.721,-0.68 0.721,-1.212 z"
         fill="#6720ff"
         id="path113" />
      <path
         d="m 536.239,87.9762 c 0,-0.5313 -0.284,-1.0081 -0.723,-1.2114 l -5.268,-2.4511 v 1.4346 l 4.819,2.2362 -4.819,2.2342 v 1.4346 l 5.27,-2.4658 c 0.437,-0.2043 0.721,-0.68 0.721,-1.2113 z"
         fill="#6720ff"
         id="path114" />
      <path
         d="m 513.525,46.5767 c 0,-0.5312 -0.284,-1.008 -0.724,-1.2113 l -5.267,-2.4511 v 1.4346 l 4.818,2.2362 -4.818,2.2342 v 1.4346 l 5.269,-2.4658 c 0.438,-0.2043 0.722,-0.6801 0.722,-1.2114 z"
         fill="#6720ff"
         id="path115" />
      <path
         d="m 490.807,5.1766 c 0,-0.53129 -0.284,-1.00809 -0.724,-1.21138 l -5.267,-2.45106 v 1.43459 l 4.818,2.23623 -4.818,2.23414 v 1.43459 l 5.269,-2.46573 c 0.438,-0.20434 0.722,-0.68009 0.722,-1.21138 z"
         fill="#6720ff"
         id="path116" />
      <path
         d="m 547.947,108.676 c 0,-0.531 -0.284,-1.008 -0.723,-1.212 l -5.268,-2.451 v 1.435 l 4.819,2.236 -4.819,2.234 v 1.435 l 5.27,-2.466 c 0.437,-0.204 0.721,-0.68 0.721,-1.211 z"
         fill="#6720ff"
         id="path117" />
      <path
         d="m 525.229,67.2765 c 0,-0.5313 -0.284,-1.0081 -0.723,-1.2114 l -5.267,-2.4511 v 1.4346 l 4.818,2.2362 -4.818,2.2342 v 1.4346 l 5.269,-2.4658 c 0.437,-0.2043 0.721,-0.6801 0.721,-1.2113 z"
         fill="#6720ff"
         id="path118" />
      <path
         d="m 502.514,25.877 c 0,-0.5313 -0.284,-1.0081 -0.723,-1.2114 l -5.267,-2.451 v 1.4346 l 4.818,2.2362 -4.818,2.2341 v 1.4346 l 5.269,-2.4657 c 0.437,-0.2044 0.721,-0.6801 0.721,-1.2114 z"
         fill="#6720ff"
         id="path119" />
    </g>
    <path
       d="m 328.39527,130.44362 c 0,-0.532 -0.283,-1.008 -0.723,-1.212 l -5.267,-2.451 v 1.435 l 4.818,2.236 -4.818,2.234 v 1.435 l 5.269,-2.466 c 0.438,-0.204 0.721,-0.68 0.721,-1.211 z"
       fill="#6720ff"
       id="path239" />
    <path
       d="m 305.67727,89.045023 c 0,-0.5313 -0.284,-1.0081 -0.723,-1.2114 l -5.267,-2.451 v 1.4346 l 4.818,2.2362 -4.818,2.2341 v 1.4346 l 5.269,-2.4657 c 0.437,-0.2044 0.721,-0.6801 0.721,-1.2114 z"
       fill="#6720ff"
       id="path240" />
    <path
       d="m 282.96327,47.645623 c 0,-0.5313 -0.284,-1.0081 -0.724,-1.2114 l -5.267,-2.451 v 1.4345 l 4.818,2.2363 -4.818,2.2341 v 1.4346 l 5.269,-2.4657 c 0.438,-0.2044 0.722,-0.6801 0.722,-1.2114 z"
       fill="#6720ff"
       id="path241" />
    <path
       d="m 260.24527,6.2454631 c 0,-0.53129 -0.284,-1.00808 -0.724,-1.21138 l -5.267,-2.45106 v 1.43459 l 4.819,2.23624 -4.819,2.23414 v 1.43458 l 5.269,-2.46572 c 0.438,-0.20435 0.722,-0.6801 0.722,-1.21139 z"
       fill="#6720ff"
       id="path242" />
    <path
       d="m 317.38527,109.74462 c 0,-0.532 -0.284,-1.008 -0.723,-1.212 l -5.267,-2.451 v 1.435 l 4.818,2.236 -4.818,2.234 v 1.435 l 5.269,-2.466 c 0.437,-0.204 0.721,-0.68 0.721,-1.211 z"
       fill="#6720ff"
       id="path243" />
    <path
       d="m 294.66727,68.344823 c 0,-0.5313 -0.283,-1.0081 -0.723,-1.2114 l -5.267,-2.451 v 1.4346 l 4.818,2.2362 -4.818,2.2341 v 1.4346 l 5.269,-2.4657 c 0.438,-0.2044 0.721,-0.6801 0.721,-1.2114 z"
       fill="#6720ff"
       id="path244" />
    <path
       d="m 271.95227,26.945423 c 0,-0.5313 -0.283,-1.0081 -0.723,-1.2114 l -5.267,-2.451 v 1.4345 l 4.818,2.2363 -4.818,2.2341 v 1.4346 l 5.269,-2.4657 c 0.438,-0.2044 0.721,-0.6801 0.721,-1.2114 z"
       fill="#6720ff"
       id="path245" />
    <g
       opacity="0.95"
       id="g252"
       transform="translate(-298.80273,1.0686231)">
      <path
         d="m 604.409,129.374 c 0,-0.532 -0.284,-1.008 -0.723,-1.212 l -5.267,-2.451 v 1.435 l 4.818,2.236 -4.818,2.234 v 1.435 l 5.269,-2.466 c 0.437,-0.204 0.721,-0.68 0.721,-1.211 z"
         fill="#6720ff"
         id="path246" />
      <path
         d="m 581.691,87.9764 c 0,-0.5313 -0.284,-1.0081 -0.723,-1.2114 L 575.7,84.314 v 1.4346 l 4.819,2.2362 -4.819,2.2341 v 1.4346 l 5.27,-2.4657 c 0.437,-0.2044 0.721,-0.6801 0.721,-1.2114 z"
         fill="#6720ff"
         id="path247" />
      <path
         d="m 558.977,46.577 c 0,-0.5313 -0.284,-1.0081 -0.724,-1.2114 l -5.267,-2.451 v 1.4345 l 4.818,2.2363 -4.818,2.2341 v 1.4346 l 5.269,-2.4657 c 0.438,-0.2044 0.722,-0.6801 0.722,-1.2114 z"
         fill="#6720ff"
         id="path248" />
      <path
         d="m 536.259,5.17684 c 0,-0.53129 -0.284,-1.00808 -0.724,-1.21138 L 530.268,1.5144 v 1.43459 l 4.818,2.23624 -4.818,2.23414 v 1.43458 l 5.269,-2.46572 c 0.438,-0.20435 0.722,-0.6801 0.722,-1.21139 z"
         fill="#6720ff"
         id="path249" />
      <path
         d="m 593.399,108.676 c 0,-0.532 -0.284,-1.008 -0.723,-1.212 l -5.268,-2.451 v 1.435 l 4.819,2.236 -4.819,2.234 v 1.435 l 5.27,-2.466 c 0.437,-0.204 0.721,-0.68 0.721,-1.211 z"
         fill="#6720ff"
         id="path250" />
      <path
         d="m 570.681,67.2757 c 0,-0.5313 -0.284,-1.0081 -0.723,-1.2114 l -5.267,-2.451 v 1.4346 l 4.818,2.2362 -4.818,2.2341 v 1.4346 l 5.269,-2.4657 c 0.437,-0.2043 0.721,-0.6801 0.721,-1.2114 z"
         fill="#6720ff"
         id="path251" />
      <path
         d="m 547.966,25.8768 c 0,-0.5313 -0.284,-1.0081 -0.723,-1.2114 l -5.267,-2.451 v 1.4345 l 4.818,2.2363 -4.818,2.2341 v 1.4346 l 5.269,-2.4657 c 0.437,-0.2044 0.721,-0.6801 0.721,-1.2114 z"
         fill="#6720ff"
         id="path252" />
    </g>
    <g
       opacity="0.9"
       id="g259"
       transform="translate(-298.80273,1.0686231)">
      <path
         d="m 581.613,129.375 c 0,-0.532 -0.284,-1.008 -0.723,-1.212 l -5.268,-2.451 v 1.435 l 4.819,2.236 -4.819,2.234 v 1.435 l 5.269,-2.466 c 0.438,-0.204 0.722,-0.68 0.722,-1.211 z"
         fill="#6720ff"
         id="path253" />
      <path
         d="m 558.895,87.9764 c 0,-0.5313 -0.284,-1.0081 -0.724,-1.2114 l -5.267,-2.451 v 1.4346 l 4.818,2.2362 -4.818,2.2341 v 1.4346 l 5.269,-2.4657 c 0.438,-0.2044 0.722,-0.6801 0.722,-1.2114 z"
         fill="#6720ff"
         id="path254" />
      <path
         d="m 536.18,46.577 c 0,-0.5313 -0.284,-1.0081 -0.723,-1.2114 l -5.268,-2.451 v 1.4345 l 4.819,2.2363 -4.819,2.2341 v 1.4346 l 5.27,-2.4657 c 0.437,-0.2044 0.721,-0.6801 0.721,-1.2114 z"
         fill="#6720ff"
         id="path255" />
      <path
         d="m 513.462,5.17776 c 0,-0.53129 -0.284,-1.00809 -0.723,-1.21138 l -5.267,-2.45106 v 1.43459 l 4.818,2.23623 -4.818,2.23414 v 1.43459 l 5.269,-2.46573 c 0.437,-0.20434 0.721,-0.68009 0.721,-1.21138 z"
         fill="#6720ff"
         id="path256" />
      <path
         d="m 570.603,108.675 c 0,-0.531 -0.284,-1.008 -0.724,-1.211 l -5.267,-2.451 v 1.434 l 4.818,2.237 -4.818,2.234 v 1.434 l 5.269,-2.465 c 0.438,-0.205 0.722,-0.681 0.722,-1.212 z"
         fill="#6720ff"
         id="path257" />
      <path
         d="m 547.885,67.2762 c 0,-0.5313 -0.284,-1.0081 -0.724,-1.2114 l -5.267,-2.451 v 1.4346 l 4.819,2.2362 -4.819,2.2341 v 1.4346 l 5.269,-2.4657 c 0.438,-0.2044 0.722,-0.6801 0.722,-1.2114 z"
         fill="#6720ff"
         id="path258" />
      <path
         d="m 525.163,25.8777 c 0,-0.5313 -0.284,-1.0081 -0.723,-1.2114 l -5.267,-2.451 v 1.4346 l 4.818,2.2362 -4.818,2.2341 v 1.4346 l 5.269,-2.4657 c 0.437,-0.2043 0.721,-0.6801 0.721,-1.2114 z"
         fill="#6720ff"
         id="path259" />
    </g>
    <g
       opacity="0.85"
       id="g266"
       transform="translate(-298.80273,1.0686231)">
      <path
         d="m 558.824,129.375 c 0,-0.532 -0.284,-1.008 -0.724,-1.212 l -5.267,-2.451 v 1.435 l 4.818,2.236 -4.818,2.234 v 1.435 l 5.269,-2.466 c 0.438,-0.204 0.722,-0.68 0.722,-1.211 z"
         fill="#6720ff"
         id="path260" />
      <path
         d="m 536.105,87.9759 c 0,-0.5313 -0.283,-1.0081 -0.723,-1.2114 l -5.267,-2.451 v 1.4346 l 4.818,2.2362 -4.818,2.2341 v 1.4346 l 5.269,-2.4657 c 0.438,-0.2043 0.721,-0.6801 0.721,-1.2114 z"
         fill="#6720ff"
         id="path261" />
      <path
         d="m 513.391,46.5765 c 0,-0.5313 -0.284,-1.0081 -0.723,-1.2114 l -5.268,-2.451 v 1.4345 l 4.819,2.2363 -4.819,2.2341 v 1.4346 l 5.27,-2.4657 c 0.437,-0.2044 0.721,-0.6801 0.721,-1.2114 z"
         fill="#6720ff"
         id="path262" />
      <path
         d="m 490.673,5.17684 c 0,-0.53129 -0.284,-1.00808 -0.723,-1.21138 L 484.683,1.5144 v 1.43459 l 4.818,2.23624 -4.818,2.23414 v 1.43458 l 5.269,-2.46572 c 0.437,-0.20435 0.721,-0.6801 0.721,-1.21139 z"
         fill="#6720ff"
         id="path263" />
      <path
         d="m 547.814,108.676 c 0,-0.532 -0.284,-1.008 -0.724,-1.212 l -5.267,-2.451 v 1.435 l 4.818,2.236 -4.818,2.234 v 1.435 l 5.269,-2.466 c 0.438,-0.204 0.722,-0.68 0.722,-1.211 z"
         fill="#6720ff"
         id="path264" />
      <path
         d="m 525.096,67.2762 c 0,-0.5313 -0.284,-1.0081 -0.724,-1.2114 l -5.267,-2.451 v 1.4346 l 4.818,2.2362 -4.818,2.2341 v 1.4346 l 5.269,-2.4657 c 0.438,-0.2044 0.722,-0.6801 0.722,-1.2114 z"
         fill="#6720ff"
         id="path265" />
      <path
         d="m 502.374,25.8768 c 0,-0.5313 -0.284,-1.0081 -0.723,-1.2114 l -5.268,-2.451 v 1.4345 l 4.819,2.2363 -4.819,2.2341 v 1.4346 l 5.27,-2.4657 c 0.437,-0.2044 0.721,-0.6801 0.721,-1.2114 z"
         fill="#6720ff"
         id="path266" />
    </g>
    <g
       opacity="0.8"
       id="g273"
       transform="translate(-298.80273,1.0686231)">
      <path
         d="m 536.031,129.375 c 0,-0.531 -0.284,-1.008 -0.724,-1.211 l -5.267,-2.451 v 1.434 l 4.818,2.237 -4.818,2.234 v 1.434 l 5.269,-2.465 c 0.438,-0.205 0.722,-0.681 0.722,-1.212 z"
         fill="#6720ff"
         id="path267" />
      <path
         d="m 513.312,87.9769 c 0,-0.5313 -0.284,-1.0081 -0.723,-1.2114 l -5.267,-2.451 v 1.4345 l 4.818,2.2363 -4.818,2.2341 v 1.4346 l 5.269,-2.4657 c 0.437,-0.2044 0.721,-0.6801 0.721,-1.2114 z"
         fill="#6720ff"
         id="path268" />
      <path
         d="m 490.598,46.5775 c 0,-0.5313 -0.284,-1.0081 -0.724,-1.2114 l -5.267,-2.4511 v 1.4346 l 4.818,2.2363 -4.818,2.2341 v 1.4346 l 5.269,-2.4657 c 0.438,-0.2044 0.722,-0.6801 0.722,-1.2114 z"
         fill="#6720ff"
         id="path269" />
      <path
         d="m 467.88,5.17733 c 0,-0.53129 -0.284,-1.00808 -0.723,-1.21138 l -5.268,-2.45106 v 1.43459 l 4.819,2.23624 -4.819,2.23414 v 1.43458 l 5.269,-2.46573 c 0.438,-0.20434 0.722,-0.68009 0.722,-1.21138 z"
         fill="#6720ff"
         id="path270" />
      <path
         d="m 525.02,108.676 c 0,-0.531 -0.284,-1.008 -0.723,-1.211 l -5.267,-2.451 v 1.434 l 4.818,2.236 -4.818,2.235 v 1.434 l 5.269,-2.466 c 0.437,-0.204 0.721,-0.68 0.721,-1.211 z"
         fill="#6720ff"
         id="path271" />
      <path
         d="m 502.302,67.2767 c 0,-0.5313 -0.283,-1.0081 -0.723,-1.2114 l -5.267,-2.451 v 1.4345 l 4.818,2.2363 -4.818,2.2341 v 1.4346 l 5.269,-2.4657 c 0.438,-0.2044 0.721,-0.6801 0.721,-1.2114 z"
         fill="#6720ff"
         id="path272" />
      <path
         d="m 479.588,25.8773 c 0,-0.5313 -0.284,-1.0081 -0.724,-1.2114 l -5.267,-2.4511 v 1.4346 l 4.818,2.2363 -4.818,2.2341 v 1.4346 l 5.269,-2.4657 c 0.438,-0.2044 0.722,-0.6801 0.722,-1.2114 z"
         fill="#6720ff"
         id="path273" />
    </g>
    <g
       opacity="0.75"
       id="g280"
       transform="translate(-298.80273,1.0686231)">
      <path
         d="m 513.235,129.375 c 0,-0.531 -0.284,-1.008 -0.723,-1.211 l -5.268,-2.451 v 1.435 l 4.819,2.236 -4.819,2.234 v 1.435 l 5.269,-2.466 c 0.438,-0.205 0.722,-0.68 0.722,-1.212 z"
         fill="#6720ff"
         id="path274" />
      <path
         d="m 490.517,87.9764 c 0,-0.5313 -0.284,-1.0081 -0.724,-1.2114 l -5.267,-2.451 v 1.4346 l 4.818,2.2362 -4.818,2.2341 v 1.4346 l 5.269,-2.4657 c 0.438,-0.2044 0.722,-0.6801 0.722,-1.2114 z"
         fill="#6720ff"
         id="path275" />
      <path
         d="m 467.802,46.5772 c 0,-0.5313 -0.284,-1.0081 -0.723,-1.2113 l -5.267,-2.4511 v 1.4346 l 4.818,2.2362 -4.818,2.2342 v 1.4345 l 5.269,-2.4657 c 0.437,-0.2043 0.721,-0.6801 0.721,-1.2114 z"
         fill="#6720ff"
         id="path276" />
      <path
         d="m 445.084,5.17733 c 0,-0.53129 -0.284,-1.00808 -0.723,-1.21138 l -5.267,-2.45106 v 1.43459 l 4.818,2.23624 -4.818,2.23414 v 1.43458 l 5.269,-2.46573 c 0.437,-0.20434 0.721,-0.68009 0.721,-1.21138 z"
         fill="#6720ff"
         id="path277" />
      <path
         d="m 502.225,108.676 c 0,-0.531 -0.284,-1.008 -0.724,-1.211 l -5.267,-2.451 v 1.434 l 4.818,2.236 -4.818,2.235 v 1.434 l 5.269,-2.466 c 0.438,-0.204 0.722,-0.68 0.722,-1.211 z"
         fill="#6720ff"
         id="path278" />
      <path
         d="m 479.506,67.2769 c 0,-0.5312 -0.283,-1.008 -0.723,-1.2113 l -5.267,-2.4511 v 1.4346 l 4.818,2.2362 -4.818,2.2342 v 1.4346 l 5.269,-2.4658 c 0.438,-0.2043 0.721,-0.6801 0.721,-1.2114 z"
         fill="#6720ff"
         id="path279" />
      <path
         d="m 456.792,25.8775 c 0,-0.5313 -0.284,-1.0081 -0.723,-1.2114 l -5.268,-2.451 v 1.4346 l 4.819,2.2362 -4.819,2.2342 v 1.4345 l 5.269,-2.4657 c 0.438,-0.2043 0.722,-0.6801 0.722,-1.2114 z"
         fill="#6720ff"
         id="path280" />
    </g>
    <g
       opacity="0.7"
       id="g287"
       transform="translate(-298.80273,1.0686231)">
      <path
         d="m 490.442,129.375 c 0,-0.531 -0.284,-1.008 -0.724,-1.211 l -5.267,-2.451 v 1.434 l 4.818,2.237 -4.818,2.234 v 1.434 l 5.269,-2.465 c 0.438,-0.205 0.722,-0.681 0.722,-1.212 z"
         fill="#6720ff"
         id="path281" />
      <path
         d="m 467.723,87.9769 c 0,-0.5313 -0.283,-1.0081 -0.723,-1.2114 l -5.267,-2.451 v 1.4345 l 4.818,2.2363 -4.818,2.2341 v 1.4346 l 5.269,-2.4657 c 0.438,-0.2044 0.721,-0.6801 0.721,-1.2114 z"
         fill="#6720ff"
         id="path282" />
      <path
         d="m 445.009,46.5774 c 0,-0.5312 -0.284,-1.008 -0.723,-1.2113 l -5.268,-2.4511 v 1.4346 l 4.819,2.2362 -4.819,2.2342 v 1.4346 l 5.269,-2.4658 c 0.438,-0.2043 0.722,-0.6801 0.722,-1.2114 z"
         fill="#6720ff"
         id="path283" />
      <path
         d="m 422.291,5.1773 c 0,-0.53129 -0.284,-1.00809 -0.723,-1.21138 L 416.3,1.51486 v 1.43459 l 4.819,2.23624 -4.819,2.23414 v 1.43458 l 5.27,-2.46573 c 0.437,-0.20434 0.721,-0.68009 0.721,-1.21138 z"
         fill="#6720ff"
         id="path284" />
      <path
         d="m 479.431,108.676 c 0,-0.531 -0.284,-1.008 -0.723,-1.211 l -5.268,-2.451 v 1.434 l 4.819,2.236 -4.819,2.235 v 1.434 l 5.27,-2.466 c 0.437,-0.204 0.721,-0.68 0.721,-1.211 z"
         fill="#6720ff"
         id="path285" />
      <path
         d="m 456.713,67.2767 c 0,-0.5313 -0.284,-1.0081 -0.723,-1.2114 l -5.267,-2.451 v 1.4345 l 4.818,2.2363 -4.818,2.2341 v 1.4346 l 5.269,-2.4657 c 0.437,-0.2044 0.721,-0.6801 0.721,-1.2114 z"
         fill="#6720ff"
         id="path286" />
      <path
         d="m 433.999,25.8773 c 0,-0.5313 -0.284,-1.0081 -0.724,-1.2114 l -5.267,-2.4511 v 1.4346 l 4.818,2.2362 -4.818,2.2342 v 1.4346 l 5.269,-2.4658 c 0.438,-0.2043 0.722,-0.6801 0.722,-1.2113 z"
         fill="#6720ff"
         id="path287" />
    </g>
    <g
       opacity="0.65"
       id="g294"
       transform="translate(-298.80273,1.0686231)">
      <path
         d="m 467.648,129.375 c 0,-0.531 -0.284,-1.008 -0.723,-1.211 l -5.268,-2.451 v 1.434 l 4.819,2.236 -4.819,2.235 v 1.434 l 5.27,-2.466 c 0.437,-0.204 0.721,-0.68 0.721,-1.211 z"
         fill="#6720ff"
         id="path288" />
      <path
         d="m 444.93,87.9768 c 0,-0.5313 -0.284,-1.0081 -0.723,-1.2113 l -5.267,-2.4511 v 1.4346 l 4.818,2.2362 -4.818,2.2342 v 1.4345 l 5.269,-2.4657 c 0.437,-0.2043 0.721,-0.6801 0.721,-1.2114 z"
         fill="#6720ff"
         id="path289" />
      <path
         d="m 422.216,46.5774 c 0,-0.5313 -0.284,-1.0081 -0.724,-1.2114 l -5.267,-2.4511 v 1.4346 l 4.818,2.2363 -4.818,2.2341 v 1.4346 l 5.269,-2.4657 c 0.438,-0.2044 0.722,-0.6801 0.722,-1.2114 z"
         fill="#6720ff"
         id="path290" />
      <path
         d="m 399.498,5.17724 c 0,-0.53129 -0.284,-1.00809 -0.723,-1.21138 L 393.507,1.5148 v 1.43459 l 4.819,2.23623 -4.819,2.23415 v 1.43458 l 5.269,-2.46573 c 0.438,-0.20434 0.722,-0.68009 0.722,-1.21138 z"
         fill="#6720ff"
         id="path291" />
      <path
         d="m 456.638,108.676 c 0,-0.532 -0.284,-1.008 -0.724,-1.212 l -5.267,-2.451 v 1.435 l 4.819,2.236 -4.819,2.234 v 1.435 l 5.269,-2.466 c 0.438,-0.204 0.722,-0.68 0.722,-1.211 z"
         fill="#6720ff"
         id="path292" />
      <path
         d="m 433.917,67.2771 c 0,-0.5313 -0.284,-1.0081 -0.724,-1.2114 l -5.267,-2.4511 v 1.4346 l 4.818,2.2362 -4.818,2.2342 v 1.4346 l 5.269,-2.4658 c 0.438,-0.2043 0.722,-0.68 0.722,-1.2113 z"
         fill="#6720ff"
         id="path293" />
      <path
         d="m 411.206,25.8777 c 0,-0.5313 -0.284,-1.0081 -0.724,-1.2114 l -5.267,-2.4511 v 1.4346 l 4.818,2.2362 -4.818,2.2342 v 1.4346 l 5.269,-2.4658 c 0.438,-0.2043 0.722,-0.6801 0.722,-1.2113 z"
         fill="#6720ff"
         id="path294" />
    </g>
    <g
       opacity="0.6"
       id="g301"
       transform="translate(-298.80273,1.0686231)">
      <path
         d="m 444.856,129.375 c 0,-0.531 -0.284,-1.008 -0.724,-1.211 l -5.267,-2.451 v 1.434 l 4.818,2.237 -4.818,2.234 v 1.434 l 5.269,-2.465 c 0.438,-0.205 0.722,-0.681 0.722,-1.212 z"
         fill="#6720ff"
         id="path295" />
      <path
         d="m 422.138,87.9769 c 0,-0.5313 -0.284,-1.0081 -0.723,-1.2114 l -5.268,-2.451 v 1.4345 l 4.819,2.2363 -4.819,2.2341 v 1.4346 l 5.269,-2.4657 c 0.438,-0.2044 0.722,-0.6801 0.722,-1.2114 z"
         fill="#6720ff"
         id="path296" />
      <path
         d="m 399.423,46.5775 c 0,-0.5313 -0.283,-1.0081 -0.723,-1.2114 l -5.267,-2.4511 v 1.4346 l 4.818,2.2363 -4.818,2.2341 v 1.4346 l 5.269,-2.4657 c 0.438,-0.2044 0.721,-0.6801 0.721,-1.2114 z"
         fill="#6720ff"
         id="path297" />
      <path
         d="m 376.706,5.17733 c 0,-0.53129 -0.284,-1.00808 -0.724,-1.21138 l -5.267,-2.45106 v 1.43459 l 4.818,2.23624 -4.818,2.23414 v 1.43458 l 5.269,-2.46573 c 0.438,-0.20434 0.722,-0.68009 0.722,-1.21138 z"
         fill="#6720ff"
         id="path298" />
      <path
         d="m 433.845,108.676 c 0,-0.532 -0.283,-1.008 -0.723,-1.212 l -5.267,-2.451 v 1.435 l 4.818,2.236 -4.818,2.234 v 1.435 l 5.269,-2.466 c 0.438,-0.204 0.721,-0.68 0.721,-1.211 z"
         fill="#6720ff"
         id="path299" />
      <path
         d="m 411.124,67.2767 c 0,-0.5313 -0.284,-1.0081 -0.723,-1.2114 l -5.267,-2.451 v 1.4345 l 4.818,2.2363 -4.818,2.2341 v 1.4346 l 5.269,-2.4657 c 0.437,-0.2044 0.721,-0.6801 0.721,-1.2114 z"
         fill="#6720ff"
         id="path300" />
      <path
         d="m 388.406,25.8773 c 0,-0.5313 -0.283,-1.0081 -0.723,-1.2114 l -5.267,-2.4511 v 1.4346 l 4.818,2.2363 -4.818,2.2341 v 1.4346 l 5.269,-2.4657 c 0.438,-0.2044 0.721,-0.6801 0.721,-1.2114 z"
         fill="#6720ff"
         id="path301" />
    </g>
    <g
       opacity="0.55"
       id="g308"
       transform="translate(-298.80273,1.0686231)">
      <path
         d="m 422.056,129.375 c 0,-0.531 -0.284,-1.008 -0.723,-1.211 l -5.268,-2.451 v 1.434 l 4.819,2.237 -4.819,2.234 v 1.434 l 5.27,-2.465 c 0.437,-0.205 0.721,-0.681 0.721,-1.212 z"
         fill="#6720ff"
         id="path302" />
      <path
         d="m 399.338,87.9759 c 0,-0.5313 -0.284,-1.0081 -0.723,-1.2114 l -5.268,-2.451 v 1.4346 l 4.819,2.2362 -4.819,2.2341 v 1.4346 l 5.27,-2.4657 c 0.437,-0.2043 0.721,-0.6801 0.721,-1.2114 z"
         fill="#6720ff"
         id="path303" />
      <path
         d="m 376.624,46.577 c 0,-0.5313 -0.284,-1.0081 -0.724,-1.2114 l -5.267,-2.451 v 1.4345 l 4.818,2.2363 -4.818,2.2341 v 1.4346 l 5.269,-2.4657 c 0.438,-0.2044 0.722,-0.6801 0.722,-1.2114 z"
         fill="#6720ff"
         id="path304" />
      <path
         d="m 353.906,5.1773 c 0,-0.53129 -0.284,-1.00809 -0.724,-1.21138 l -5.267,-2.45106 v 1.43459 l 4.819,2.23624 -4.819,2.23414 v 1.43458 l 5.269,-2.46573 c 0.438,-0.20434 0.722,-0.68009 0.722,-1.21138 z"
         fill="#6720ff"
         id="path305" />
      <path
         d="m 411.042,108.675 c 0,-0.531 -0.283,-1.008 -0.723,-1.211 l -5.267,-2.451 v 1.434 l 4.818,2.237 -4.818,2.234 v 1.434 l 5.269,-2.465 c 0.438,-0.205 0.721,-0.681 0.721,-1.212 z"
         fill="#6720ff"
         id="path306" />
      <path
         d="m 388.325,67.2767 c 0,-0.5313 -0.284,-1.0081 -0.724,-1.2114 l -5.267,-2.451 v 1.4345 l 4.818,2.2363 -4.818,2.2341 v 1.4346 l 5.269,-2.4657 c 0.438,-0.2044 0.722,-0.6801 0.722,-1.2114 z"
         fill="#6720ff"
         id="path307" />
      <path
         d="m 365.607,25.8782 c 0,-0.5313 -0.284,-1.0081 -0.724,-1.2114 l -5.267,-2.451 v 1.4345 l 4.818,2.2363 -4.818,2.2341 v 1.4346 l 5.269,-2.4657 c 0.438,-0.2044 0.722,-0.6801 0.722,-1.2114 z"
         fill="#6720ff"
         id="path308" />
    </g>
    <g
       opacity="0.5"
       id="g315"
       transform="translate(-298.80273,1.0686231)">
      <path
         d="m 399.269,129.375 c 0,-0.531 -0.283,-1.008 -0.723,-1.211 l -5.267,-2.451 v 1.434 l 4.818,2.237 -4.818,2.234 v 1.434 l 5.269,-2.465 c 0.438,-0.205 0.721,-0.681 0.721,-1.212 z"
         fill="#6720ff"
         id="path309" />
      <path
         d="m 376.548,87.9769 c 0,-0.5313 -0.284,-1.0081 -0.723,-1.2114 l -5.267,-2.451 v 1.4345 l 4.818,2.2363 -4.818,2.2341 v 1.4346 l 5.269,-2.4657 c 0.437,-0.2044 0.721,-0.6801 0.721,-1.2114 z"
         fill="#6720ff"
         id="path310" />
      <path
         d="m 353.834,46.5775 c 0,-0.5313 -0.284,-1.0081 -0.724,-1.2114 l -5.267,-2.4511 v 1.4346 l 4.818,2.2363 -4.818,2.2341 v 1.4346 l 5.269,-2.4657 c 0.438,-0.2044 0.722,-0.6801 0.722,-1.2114 z"
         fill="#6720ff"
         id="path311" />
      <path
         d="m 331.116,5.17733 c 0,-0.53129 -0.284,-1.00808 -0.724,-1.21138 l -5.267,-2.45106 v 1.43459 l 4.819,2.23624 -4.819,2.23414 v 1.43458 l 5.269,-2.46573 c 0.438,-0.20434 0.722,-0.68009 0.722,-1.21138 z"
         fill="#6720ff"
         id="path312" />
      <path
         d="m 388.256,108.676 c 0,-0.531 -0.284,-1.008 -0.724,-1.211 l -5.267,-2.451 v 1.434 l 4.818,2.236 -4.818,2.235 v 1.434 l 5.269,-2.466 c 0.438,-0.204 0.722,-0.68 0.722,-1.211 z"
         fill="#6720ff"
         id="path313" />
      <path
         d="m 365.535,67.2767 c 0,-0.5313 -0.284,-1.0081 -0.724,-1.2114 l -5.267,-2.451 v 1.4345 l 4.818,2.2363 -4.818,2.2341 v 1.4346 l 5.269,-2.4657 c 0.438,-0.2044 0.722,-0.6801 0.722,-1.2114 z"
         fill="#6720ff"
         id="path314" />
      <path
         d="m 342.823,25.8782 c 0,-0.5313 -0.283,-1.0081 -0.723,-1.2114 l -5.267,-2.451 v 1.4345 l 4.818,2.2363 -4.818,2.2341 v 1.4346 l 5.269,-2.4657 c 0.438,-0.2044 0.721,-0.6801 0.721,-1.2114 z"
         fill="#6720ff"
         id="path315" />
    </g>
    <g
       opacity="0.45"
       id="g322"
       transform="translate(-298.80273,1.0686231)">
      <path
         d="m 376.478,129.375 c 0,-0.532 -0.284,-1.008 -0.724,-1.212 l -5.267,-2.451 v 1.435 l 4.818,2.236 -4.818,2.234 v 1.435 l 5.269,-2.466 c 0.438,-0.204 0.722,-0.68 0.722,-1.211 z"
         fill="#6720ff"
         id="path316" />
      <path
         d="m 353.76,87.9764 c 0,-0.5313 -0.284,-1.0081 -0.723,-1.2114 l -5.268,-2.451 v 1.4346 l 4.819,2.2362 -4.819,2.2341 v 1.4346 l 5.269,-2.4657 c 0.438,-0.2044 0.722,-0.6801 0.722,-1.2114 z"
         fill="#6720ff"
         id="path317" />
      <path
         d="m 331.045,46.577 c 0,-0.5313 -0.283,-1.0081 -0.723,-1.2114 l -5.267,-2.451 v 1.4345 l 4.818,2.2363 -4.818,2.2341 v 1.4346 l 5.269,-2.4657 c 0.438,-0.2044 0.721,-0.6801 0.721,-1.2114 z"
         fill="#6720ff"
         id="path318" />
      <path
         d="m 308.328,5.17684 c 0,-0.53129 -0.284,-1.00808 -0.724,-1.21138 L 302.337,1.5144 v 1.43459 l 4.818,2.23624 -4.818,2.23414 v 1.43458 l 5.269,-2.46572 c 0.438,-0.20435 0.722,-0.6801 0.722,-1.21139 z"
         fill="#6720ff"
         id="path319" />
      <path
         d="m 365.468,108.676 c 0,-0.532 -0.284,-1.008 -0.724,-1.212 l -5.267,-2.451 v 1.435 l 4.818,2.236 -4.818,2.234 v 1.435 l 5.269,-2.466 c 0.438,-0.204 0.722,-0.68 0.722,-1.211 z"
         fill="#6720ff"
         id="path320" />
      <path
         d="m 342.746,67.2762 c 0,-0.5313 -0.284,-1.0081 -0.723,-1.2114 l -5.267,-2.451 v 1.4346 l 4.818,2.2362 -4.818,2.2341 v 1.4346 l 5.269,-2.4657 c 0.437,-0.2044 0.721,-0.6801 0.721,-1.2114 z"
         fill="#6720ff"
         id="path321" />
      <path
         d="m 320.028,25.8768 c 0,-0.5313 -0.283,-1.0081 -0.723,-1.2114 l -5.267,-2.451 v 1.4345 l 4.818,2.2363 -4.818,2.2341 v 1.4346 l 5.269,-2.4657 c 0.438,-0.2044 0.721,-0.6801 0.721,-1.2114 z"
         fill="#6720ff"
         id="path322" />
    </g>
    <g
       opacity="0.4"
       id="g329"
       transform="translate(-298.80273,1.0686231)">
      <path
         d="m 353.681,129.375 c 0,-0.532 -0.284,-1.008 -0.723,-1.212 l -5.267,-2.451 v 1.435 l 4.818,2.236 -4.818,2.234 v 1.435 l 5.269,-2.466 c 0.437,-0.204 0.721,-0.68 0.721,-1.211 z"
         fill="#6720ff"
         id="path323" />
      <path
         d="m 330.963,87.9759 c 0,-0.5313 -0.283,-1.0081 -0.723,-1.2114 l -5.267,-2.451 v 1.4346 l 4.818,2.2362 -4.818,2.2341 v 1.4346 l 5.269,-2.4657 c 0.438,-0.2043 0.721,-0.6801 0.721,-1.2114 z"
         fill="#6720ff"
         id="path324" />
      <path
         d="m 308.249,46.5765 c 0,-0.5313 -0.284,-1.0081 -0.723,-1.2114 l -5.268,-2.451 v 1.4345 l 4.819,2.2363 -4.819,2.2341 v 1.4346 l 5.269,-2.4657 c 0.438,-0.2044 0.722,-0.6801 0.722,-1.2114 z"
         fill="#6720ff"
         id="path325" />
      <path
         d="m 285.531,5.17684 c 0,-0.53129 -0.284,-1.00808 -0.723,-1.21138 L 279.54,1.5144 v 1.43459 l 4.819,2.23624 -4.819,2.23414 v 1.43458 l 5.27,-2.46572 c 0.437,-0.20435 0.721,-0.6801 0.721,-1.21139 z"
         fill="#6720ff"
         id="path326" />
      <path
         d="m 342.671,108.676 c 0,-0.532 -0.284,-1.008 -0.723,-1.212 l -5.268,-2.451 v 1.435 l 4.819,2.236 -4.819,2.234 v 1.435 l 5.27,-2.466 c 0.437,-0.204 0.721,-0.68 0.721,-1.211 z"
         fill="#6720ff"
         id="path327" />
      <path
         d="m 319.953,67.2762 c 0,-0.5313 -0.284,-1.0081 -0.723,-1.2114 l -5.267,-2.451 v 1.4346 l 4.818,2.2362 -4.818,2.2341 v 1.4346 l 5.269,-2.4657 c 0.437,-0.2044 0.721,-0.6801 0.721,-1.2114 z"
         fill="#6720ff"
         id="path328" />
      <path
         d="m 297.232,25.8777 c 0,-0.5313 -0.284,-1.0081 -0.723,-1.2114 l -5.268,-2.451 v 1.4346 l 4.819,2.2362 -4.819,2.2341 v 1.4346 l 5.269,-2.4657 c 0.438,-0.2043 0.722,-0.6801 0.722,-1.2114 z"
         fill="#6720ff"
         id="path329" />
    </g>
    <g
       opacity="0.35"
       id="g336"
       transform="translate(-298.80273,1.0686231)">
      <path
         d="m 330.888,129.375 c 0,-0.532 -0.284,-1.008 -0.723,-1.212 l -5.268,-2.451 v 1.435 l 4.819,2.236 -4.819,2.234 v 1.435 l 5.27,-2.466 c 0.437,-0.204 0.721,-0.68 0.721,-1.211 z"
         fill="#6720ff"
         id="path330" />
      <path
         d="m 308.17,87.9764 c 0,-0.5313 -0.284,-1.0081 -0.723,-1.2114 l -5.267,-2.451 v 1.4346 l 4.818,2.2362 -4.818,2.2341 v 1.4346 l 5.269,-2.4657 c 0.437,-0.2044 0.721,-0.6801 0.721,-1.2114 z"
         fill="#6720ff"
         id="path331" />
      <path
         d="m 285.456,46.577 c 0,-0.5313 -0.284,-1.0081 -0.724,-1.2114 l -5.267,-2.451 v 1.4345 l 4.818,2.2363 -4.818,2.2341 v 1.4346 l 5.269,-2.4657 c 0.438,-0.2044 0.722,-0.6801 0.722,-1.2114 z"
         fill="#6720ff"
         id="path332" />
      <path
         d="m 262.738,5.17684 c 0,-0.53129 -0.284,-1.00808 -0.723,-1.21138 L 256.747,1.5144 v 1.43459 l 4.819,2.23624 -4.819,2.23414 v 1.43458 l 5.269,-2.46572 c 0.438,-0.20435 0.722,-0.6801 0.722,-1.21139 z"
         fill="#6720ff"
         id="path333" />
      <path
         d="m 319.878,108.675 c 0,-0.531 -0.284,-1.008 -0.724,-1.211 l -5.267,-2.451 v 1.434 l 4.819,2.237 -4.819,2.234 v 1.434 l 5.269,-2.465 c 0.438,-0.205 0.722,-0.681 0.722,-1.212 z"
         fill="#6720ff"
         id="path334" />
      <path
         d="m 297.16,67.2762 c 0,-0.5313 -0.284,-1.0081 -0.723,-1.2114 l -5.268,-2.451 v 1.4346 l 4.819,2.2362 -4.819,2.2341 v 1.4346 l 5.269,-2.4657 c 0.438,-0.2044 0.722,-0.6801 0.722,-1.2114 z"
         fill="#6720ff"
         id="path335" />
      <path
         d="m 274.439,25.8768 c 0,-0.5313 -0.284,-1.0081 -0.724,-1.2114 l -5.267,-2.451 v 1.4345 l 4.818,2.2363 -4.818,2.2341 v 1.4346 l 5.269,-2.4657 c 0.438,-0.2044 0.722,-0.6801 0.722,-1.2114 z"
         fill="#6720ff"
         id="path336" />
    </g>
    <g
       opacity="0.3"
       id="g343"
       transform="translate(-298.80273,1.0686231)">
      <path
         d="m 308.096,129.375 c 0,-0.531 -0.284,-1.008 -0.724,-1.211 l -5.267,-2.452 v 1.435 l 4.818,2.236 -4.818,2.234 v 1.435 l 5.269,-2.466 c 0.438,-0.204 0.722,-0.68 0.722,-1.211 z"
         fill="#6720ff"
         id="path337" />
      <path
         d="m 285.378,87.9764 c 0,-0.5313 -0.284,-1.0081 -0.724,-1.2114 l -5.267,-2.451 v 1.4346 l 4.819,2.2362 -4.819,2.2341 v 1.4346 l 5.269,-2.4657 c 0.438,-0.2044 0.722,-0.6801 0.722,-1.2114 z"
         fill="#6720ff"
         id="path338" />
      <path
         d="m 262.663,46.5772 c 0,-0.5313 -0.284,-1.0081 -0.723,-1.2114 l -5.267,-2.451 v 1.4346 l 4.818,2.2362 -4.818,2.2341 v 1.4346 l 5.269,-2.4657 c 0.437,-0.2044 0.721,-0.6801 0.721,-1.2114 z"
         fill="#6720ff"
         id="path339" />
      <path
         d="m 239.946,5.17684 c 0,-0.53129 -0.284,-1.00808 -0.724,-1.21138 L 233.955,1.5144 v 1.43459 l 4.818,2.23624 -4.818,2.23414 v 1.43458 l 5.269,-2.46572 c 0.438,-0.20435 0.722,-0.6801 0.722,-1.21139 z"
         fill="#6720ff"
         id="path340" />
      <path
         d="m 297.085,108.675 c 0,-0.531 -0.283,-1.008 -0.723,-1.211 l -5.267,-2.451 v 1.434 l 4.818,2.237 -4.818,2.234 v 1.434 l 5.269,-2.465 c 0.438,-0.205 0.721,-0.681 0.721,-1.212 z"
         fill="#6720ff"
         id="path341" />
      <path
         d="m 274.368,67.2765 c 0,-0.5313 -0.284,-1.0081 -0.724,-1.2114 l -5.267,-2.4511 v 1.4346 l 4.818,2.2362 -4.818,2.2342 v 1.4346 l 5.269,-2.4658 c 0.438,-0.2043 0.722,-0.6801 0.722,-1.2113 z"
         fill="#6720ff"
         id="path342" />
      <path
         d="m 251.653,25.878 c 0,-0.5313 -0.284,-1.0081 -0.723,-1.2114 l -5.267,-2.4511 v 1.4346 l 4.818,2.2362 -4.818,2.2342 v 1.4346 l 5.269,-2.4658 c 0.437,-0.2043 0.721,-0.6801 0.721,-1.2113 z"
         fill="#6720ff"
         id="path343" />
    </g>
    <path
       d="m 54.458272,130.44362 c 0,-0.532 -0.284,-1.008 -0.724,-1.212 l -5.267,-2.451 v 1.435 l 4.818,2.236 -4.818,2.234 v 1.435 l 5.269,-2.466 c 0.438,-0.204 0.722,-0.68 0.722,-1.211 z"
       fill="#6720ff"
       id="path358" />
    <path
       d="m 31.740272,89.045023 c 0,-0.5313 -0.284,-1.0081 -0.724,-1.2114 l -5.267,-2.451 v 1.4346 l 4.819,2.2362 -4.819,2.2341 v 1.4346 l 5.269,-2.4657 c 0.438,-0.2044 0.722,-0.6801 0.722,-1.2114 z"
       fill="#6720ff"
       id="path359" />
    <path
       d="m 9.025272,47.645623 c 0,-0.5313 -0.283,-1.0081 -0.723,-1.2114 l -5.2669997,-2.451 v 1.4345 l 4.8179997,2.2363 -4.8179997,2.2341 v 1.4346 l 5.2689997,-2.4657 c 0.438,-0.2044 0.721,-0.6801 0.721,-1.2114 z"
       fill="#6720ff"
       id="path360" />
    <path
       d="m -13.691728,6.2454631 c 0,-0.53129 -0.284,-1.00808 -0.724,-1.21138 l -5.267,-2.45106 v 1.43459 l 4.818,2.23624 -4.818,2.23414 v 1.43458 l 5.269,-2.46572 c 0.438,-0.20435 0.722,-0.6801 0.722,-1.21139 z"
       fill="#6720ff"
       id="path361" />
    <path
       d="m 43.444272,109.74362 c 0,-0.531 -0.284,-1.008 -0.723,-1.211 l -5.268,-2.451 v 1.434 l 4.819,2.237 -4.819,2.234 v 1.434 l 5.27,-2.465 c 0.437,-0.205 0.721,-0.681 0.721,-1.212 z"
       fill="#6720ff"
       id="path362" />
    <path
       d="m 20.730272,68.344823 c 0,-0.5313 -0.284,-1.0081 -0.724,-1.2114 l -5.267,-2.451 v 1.4346 l 4.818,2.2362 -4.818,2.2341 v 1.4346 l 5.269,-2.4657 c 0.438,-0.2044 0.722,-0.6801 0.722,-1.2114 z"
       fill="#6720ff"
       id="path363" />
    <path
       d="m -1.9847277,26.945423 c 0,-0.5313 -0.284,-1.0081 -0.723,-1.2114 l -5.267,-2.451 v 1.4345 l 4.818,2.2363 -4.818,2.2341 v 1.4346 l 5.269,-2.4657 c 0.437,-0.2044 0.721,-0.6801 0.721,-1.2114 z"
       fill="#6720ff"
       id="path364" />
    <g
       opacity="0.95"
       id="g371"
       transform="translate(-298.80273,1.0686231)">
      <path
         d="m 330.468,129.375 c 0,-0.532 -0.284,-1.008 -0.723,-1.212 l -5.267,-2.451 v 1.435 l 4.818,2.236 -4.818,2.234 v 1.435 l 5.269,-2.466 c 0.437,-0.204 0.721,-0.68 0.721,-1.211 z"
         fill="#6720ff"
         id="path365" />
      <path
         d="m 307.75,87.9764 c 0,-0.5313 -0.283,-1.0081 -0.723,-1.2114 l -5.267,-2.451 v 1.4346 l 4.818,2.2362 -4.818,2.2341 v 1.4346 l 5.269,-2.4657 c 0.438,-0.2044 0.721,-0.6801 0.721,-1.2114 z"
         fill="#6720ff"
         id="path366" />
      <path
         d="m 285.036,46.577 c 0,-0.5313 -0.284,-1.0081 -0.723,-1.2114 l -5.268,-2.451 v 1.4345 l 4.819,2.2363 -4.819,2.2341 v 1.4346 l 5.269,-2.4657 c 0.438,-0.2044 0.722,-0.6801 0.722,-1.2114 z"
         fill="#6720ff"
         id="path367" />
      <path
         d="m 262.318,5.17684 c 0,-0.53129 -0.284,-1.00808 -0.723,-1.21138 L 256.327,1.5144 v 1.43459 l 4.819,2.23624 -4.819,2.23414 v 1.43458 l 5.27,-2.46572 c 0.437,-0.20435 0.721,-0.6801 0.721,-1.21139 z"
         fill="#6720ff"
         id="path368" />
      <path
         d="m 319.458,108.675 c 0,-0.531 -0.284,-1.008 -0.723,-1.211 l -5.268,-2.451 v 1.434 l 4.819,2.237 -4.819,2.234 v 1.434 l 5.27,-2.465 c 0.437,-0.205 0.721,-0.681 0.721,-1.212 z"
         fill="#6720ff"
         id="path369" />
      <path
         d="m 296.74,67.2762 c 0,-0.5313 -0.284,-1.0081 -0.723,-1.2114 l -5.267,-2.451 v 1.4346 l 4.818,2.2362 -4.818,2.2341 v 1.4346 l 5.269,-2.4657 c 0.437,-0.2044 0.721,-0.6801 0.721,-1.2114 z"
         fill="#6720ff"
         id="path370" />
      <path
         d="m 274.026,25.8777 c 0,-0.5313 -0.284,-1.0081 -0.724,-1.2114 l -5.267,-2.451 v 1.4346 l 4.818,2.2362 -4.818,2.2341 v 1.4346 l 5.269,-2.4657 c 0.438,-0.2043 0.722,-0.6801 0.722,-1.2114 z"
         fill="#6720ff"
         id="path371" />
    </g>
    <g
       opacity="0.9"
       id="g378"
       transform="translate(-298.80273,1.0686231)">
      <path
         d="m 307.675,129.375 c 0,-0.532 -0.284,-1.008 -0.723,-1.212 l -5.268,-2.451 v 1.435 l 4.819,2.236 -4.819,2.234 v 1.435 l 5.27,-2.466 c 0.437,-0.204 0.721,-0.68 0.721,-1.211 z"
         fill="#6720ff"
         id="path372" />
      <path
         d="m 284.957,87.9759 c 0,-0.5313 -0.284,-1.0081 -0.723,-1.2114 l -5.267,-2.451 v 1.4346 l 4.818,2.2362 -4.818,2.2341 v 1.4346 l 5.269,-2.4657 c 0.437,-0.2043 0.721,-0.6801 0.721,-1.2114 z"
         fill="#6720ff"
         id="path373" />
      <path
         d="m 262.243,46.5765 c 0,-0.5313 -0.284,-1.0081 -0.724,-1.2114 l -5.267,-2.451 v 1.4345 l 4.818,2.2363 -4.818,2.2341 v 1.4346 l 5.269,-2.4657 c 0.438,-0.2044 0.722,-0.6801 0.722,-1.2114 z"
         fill="#6720ff"
         id="path374" />
      <path
         d="m 239.525,5.17684 c 0,-0.53129 -0.284,-1.00808 -0.723,-1.21138 L 233.534,1.5144 v 1.43459 l 4.819,2.23624 -4.819,2.23414 v 1.43458 l 5.269,-2.46572 c 0.438,-0.20435 0.722,-0.6801 0.722,-1.21139 z"
         fill="#6720ff"
         id="path375" />
      <path
         d="m 296.665,108.675 c 0,-0.532 -0.284,-1.008 -0.724,-1.212 l -5.267,-2.451 v 1.435 l 4.819,2.236 -4.819,2.234 v 1.435 l 5.269,-2.466 c 0.438,-0.204 0.722,-0.68 0.722,-1.211 z"
         fill="#6720ff"
         id="path376" />
      <path
         d="m 273.947,67.2762 c 0,-0.5313 -0.284,-1.0081 -0.723,-1.2114 l -5.268,-2.451 v 1.4346 l 4.819,2.2362 -4.819,2.2341 v 1.4346 l 5.27,-2.4657 c 0.437,-0.2044 0.721,-0.6801 0.721,-1.2114 z"
         fill="#6720ff"
         id="path377" />
      <path
         d="m 251.226,25.8777 c 0,-0.5313 -0.284,-1.0081 -0.724,-1.2114 l -5.267,-2.451 v 1.4346 l 4.819,2.2362 -4.819,2.2341 v 1.4346 l 5.269,-2.4657 c 0.438,-0.2043 0.722,-0.6801 0.722,-1.2114 z"
         fill="#6720ff"
         id="path378" />
    </g>
  </g>
</svg>
