<svg width="1440" height="1044" viewBox="0 0 1440 1044" fill="none" xmlns="http://www.w3.org/2000/svg">
<rect x="0.5" y="0.5" width="1439" height="1043" fill="black"/>
<rect x="0.5" y="0.5" width="1439" height="1043" stroke="url(#paint0_linear_67_147740)"/>
<mask id="mask0_67_147740" style="mask-type:alpha" maskUnits="userSpaceOnUse" x="0" y="0" width="1441" height="1044">
<rect width="1440" height="1044" fill="#D9D9D9"/>
</mask>
<g mask="url(#mask0_67_147740)">
<g opacity="0.3">
<rect width="265.343" height="265.343" transform="matrix(0.86601 0.500028 3.18351e-05 1 1170.8 251.001)" fill="#6E6E6E"/>
<rect width="265.343" height="265.343" transform="matrix(0.86601 -0.500028 -3.18351e-05 1 941.008 383.68)" fill="#5A5A5A"/>
<rect width="265.343" height="265.343" transform="matrix(0.866041 0.499972 -0.866041 0.499972 1170.8 516.33)" fill="#AAAAAA"/>
<rect width="265.343" height="265.343" transform="matrix(0.86601 0.500028 3.18351e-05 1 941 383.636)" fill="#8144C6"/>
<rect width="265.343" height="265.343" transform="matrix(0.86601 -0.500028 -3.18351e-05 1 1170.8 516.314)" fill="#211F8A"/>
<rect width="265.343" height="265.343" transform="matrix(0.866041 -0.499972 0.866041 0.499972 941 383.664)" fill="#532AA4"/>
</g>
<g opacity="0.2">
<rect width="265.343" height="265.343" transform="matrix(0.86601 0.500028 3.18351e-05 1 694.798 251.001)" fill="#6E6E6E"/>
<rect width="265.343" height="265.343" transform="matrix(0.86601 -0.500028 -3.18351e-05 1 465.008 383.68)" fill="#5A5A5A"/>
<rect width="265.343" height="265.343" transform="matrix(0.866041 0.499972 -0.866041 0.499972 694.798 516.33)" fill="#AAAAAA"/>
<rect width="265.343" height="265.343" transform="matrix(0.86601 0.500028 3.18351e-05 1 465 383.636)" fill="#8144C6"/>
<rect width="265.343" height="265.343" transform="matrix(0.86601 -0.500028 -3.18351e-05 1 694.798 516.314)" fill="#211F8A"/>
<rect width="265.343" height="265.343" transform="matrix(0.866041 -0.499972 0.866041 0.499972 465 383.664)" fill="#532AA4"/>
</g>
<g opacity="0.3">
<rect width="265.343" height="265.343" transform="matrix(0.86601 0.500028 3.18351e-05 1 1170.8 -52.999)" fill="#6E6E6E"/>
<rect width="265.343" height="265.343" transform="matrix(0.86601 -0.500028 -3.18351e-05 1 941.008 79.6797)" fill="#5A5A5A"/>
<rect width="265.343" height="265.343" transform="matrix(0.866041 0.499972 -0.866041 0.499972 1170.8 212.33)" fill="#AAAAAA"/>
<rect width="265.343" height="265.343" transform="matrix(0.86601 0.500028 3.18351e-05 1 941 79.6357)" fill="#8144C6"/>
<rect width="265.343" height="265.343" transform="matrix(0.86601 -0.500028 -3.18351e-05 1 1170.8 212.314)" fill="#211F8A"/>
<rect width="265.343" height="265.343" transform="matrix(0.866041 -0.499972 0.866041 0.499972 941 79.6641)" fill="#532AA4"/>
</g>
<g opacity="0.2">
<rect width="265.343" height="265.343" transform="matrix(0.86601 0.500028 3.18351e-05 1 694.798 -52.999)" fill="#6E6E6E"/>
<rect width="265.343" height="265.343" transform="matrix(0.86601 -0.500028 -3.18351e-05 1 465.008 79.6797)" fill="#5A5A5A"/>
<rect width="265.343" height="265.343" transform="matrix(0.866041 0.499972 -0.866041 0.499972 694.798 212.33)" fill="#AAAAAA"/>
<rect width="265.343" height="265.343" transform="matrix(0.86601 0.500028 3.18351e-05 1 465 79.6357)" fill="#8144C6"/>
<rect width="265.343" height="265.343" transform="matrix(0.86601 -0.500028 -3.18351e-05 1 694.798 212.314)" fill="#211F8A"/>
<rect width="265.343" height="265.343" transform="matrix(0.866041 -0.499972 0.866041 0.499972 465 79.6641)" fill="#532AA4"/>
</g>
<g opacity="0.3">
<rect width="265.343" height="265.343" transform="matrix(0.86601 0.500028 3.18351e-05 1 1170.8 567.001)" fill="#6E6E6E"/>
<rect width="265.343" height="265.343" transform="matrix(0.86601 -0.500028 -3.18351e-05 1 941.008 699.68)" fill="#5A5A5A"/>
<rect width="265.343" height="265.343" transform="matrix(0.866041 0.499972 -0.866041 0.499972 1170.8 832.33)" fill="#AAAAAA"/>
<rect width="265.343" height="265.343" transform="matrix(0.86601 0.500028 3.18351e-05 1 941 699.636)" fill="#8144C6"/>
<rect width="265.343" height="265.343" transform="matrix(0.86601 -0.500028 -3.18351e-05 1 1170.8 832.314)" fill="#211F8A"/>
<rect width="265.343" height="265.343" transform="matrix(0.866041 -0.499972 0.866041 0.499972 941 699.664)" fill="#532AA4"/>
</g>
<g opacity="0.2">
<rect width="265.343" height="265.343" transform="matrix(0.86601 0.500028 3.18351e-05 1 694.798 567.001)" fill="#6E6E6E"/>
<rect width="265.343" height="265.343" transform="matrix(0.86601 -0.500028 -3.18351e-05 1 465.008 699.68)" fill="#5A5A5A"/>
<rect width="265.343" height="265.343" transform="matrix(0.866041 0.499972 -0.866041 0.499972 694.798 832.33)" fill="#AAAAAA"/>
<rect width="265.343" height="265.343" transform="matrix(0.86601 0.500028 3.18351e-05 1 465 699.636)" fill="#8144C6"/>
<rect width="265.343" height="265.343" transform="matrix(0.86601 -0.500028 -3.18351e-05 1 694.798 832.314)" fill="#211F8A"/>
<rect width="265.343" height="265.343" transform="matrix(0.866041 -0.499972 0.866041 0.499972 465 699.664)" fill="#532AA4"/>
</g>
</g>
<defs>
<linearGradient id="paint0_linear_67_147740" x1="720" y1="0" x2="720" y2="1044" gradientUnits="userSpaceOnUse">
<stop/>
<stop offset="1" stop-color="#8269C8"/>
</linearGradient>
</defs>
</svg>
