<svg width="1440" height="1044" viewBox="0 0 1440 1044" fill="none" xmlns="http://www.w3.org/2000/svg">
<g clip-path="url(#clip0_67_188046)">
<rect width="1440" height="1044" fill="black"/>
<rect width="87.9452" height="87.9452" transform="matrix(0.86601 0.500028 3.18351e-05 1 1096.78 681.21)" fill="#6E6E6E"/>
<rect width="87.9452" height="87.9452" transform="matrix(0.86601 -0.500028 -3.18351e-05 1 1020.62 725.184)" fill="#5A5A5A"/>
<rect width="87.9452" height="87.9452" transform="matrix(0.866041 0.499972 -0.866041 0.499972 1096.78 769.15)" fill="#AAAAAA"/>
<rect width="87.9452" height="87.9452" transform="matrix(0.86601 0.500028 3.18351e-05 1 1020.62 725.169)" fill="#1F0C3C"/>
<rect width="87.9452" height="87.9452" transform="matrix(0.86601 -0.500028 -3.18351e-05 1 1096.78 769.145)" fill="#2D1466"/>
<rect width="87.9452" height="87.9452" transform="matrix(0.866041 -0.499972 0.866041 0.499972 1020.62 725.18)" fill="#180A33"/>
<rect width="87.9452" height="87.9452" transform="matrix(0.86601 0.500028 3.18351e-05 1 1096.78 575.213)" fill="#6E6E6E"/>
<rect width="87.9452" height="87.9452" transform="matrix(0.86601 -0.500028 -3.18351e-05 1 1020.62 619.187)" fill="#5A5A5A"/>
<rect width="87.9452" height="87.9452" transform="matrix(0.866041 0.499972 -0.866041 0.499972 1096.78 663.153)" fill="#AAAAAA"/>
<rect width="87.9452" height="87.9452" transform="matrix(0.86601 0.500028 3.18351e-05 1 1020.62 619.172)" fill="#1F0C3C"/>
<rect width="87.9452" height="87.9452" transform="matrix(0.86601 -0.500028 -3.18351e-05 1 1096.78 663.148)" fill="#3C1466"/>
<rect width="87.9452" height="87.9452" transform="matrix(0.866041 -0.499972 0.866041 0.499972 1020.62 619.183)" fill="#180A33"/>
<rect width="87.9452" height="87.9452" transform="matrix(0.86601 0.500028 3.18351e-05 1 1096.78 470.173)" fill="#6E6E6E"/>
<rect width="87.9452" height="87.9452" transform="matrix(0.86601 -0.500028 -3.18351e-05 1 1020.62 514.147)" fill="#5A5A5A"/>
<rect width="87.9452" height="87.9452" transform="matrix(0.866041 0.499972 -0.866041 0.499972 1096.78 558.113)" fill="#AAAAAA"/>
<rect width="87.9452" height="87.9452" transform="matrix(0.86601 0.500028 3.18351e-05 1 1020.62 514.132)" fill="#1F0C3C"/>
<rect width="87.9452" height="87.9452" transform="matrix(0.86601 -0.500028 -3.18351e-05 1 1096.78 558.108)" fill="#2D1466"/>
<rect width="87.9452" height="87.9452" transform="matrix(0.866041 -0.499972 0.866041 0.499972 1020.62 514.143)" fill="#180A33"/>
<rect width="87.9452" height="87.9452" transform="matrix(0.86601 0.500028 3.18351e-05 1 1264.78 355.696)" fill="#6E6E6E"/>
<rect width="87.9452" height="87.9452" transform="matrix(0.86601 -0.500028 -3.18351e-05 1 1188.62 399.67)" fill="#5A5A5A"/>
<rect width="87.9452" height="87.9452" transform="matrix(0.866041 0.499972 -0.866041 0.499972 1264.78 443.635)" fill="#AAAAAA"/>
<rect width="87.9452" height="87.9452" transform="matrix(0.86601 0.500028 3.18351e-05 1 1188.62 399.655)" fill="#1F0C3C"/>
<rect width="87.9452" height="87.9452" transform="matrix(0.86601 -0.500028 -3.18351e-05 1 1264.78 443.63)" fill="#2D1466"/>
<rect width="87.9452" height="87.9452" transform="matrix(0.866041 -0.499972 0.866041 0.499972 1188.62 399.665)" fill="#180A33"/>
<rect width="87.9452" height="87.9452" transform="matrix(0.86601 0.500028 3.18351e-05 1 1096.7 259.667)" fill="#6E6E6E"/>
<rect width="87.9452" height="87.9452" transform="matrix(0.86601 -0.500028 -3.18351e-05 1 1020.54 303.641)" fill="#5A5A5A"/>
<rect width="87.9452" height="87.9452" transform="matrix(0.866041 0.499972 -0.866041 0.499972 1096.7 347.606)" fill="#AAAAAA"/>
<rect width="87.9452" height="87.9452" transform="matrix(0.86601 0.500028 3.18351e-05 1 1020.53 303.625)" fill="#1F0C3C"/>
<rect width="87.9452" height="87.9452" transform="matrix(0.86601 -0.500028 -3.18351e-05 1 1096.7 347.601)" fill="#3C1466"/>
<rect width="87.9452" height="87.9452" transform="matrix(0.866041 -0.499972 0.866041 0.499972 1020.53 303.636)" fill="#180A33"/>
<rect width="87.9452" height="87.9452" transform="matrix(0.86601 0.500028 3.18351e-05 1 1096.7 154.01)" fill="#6E6E6E"/>
<rect width="87.9452" height="87.9452" transform="matrix(0.86601 -0.500028 -3.18351e-05 1 1020.54 197.984)" fill="#5A5A5A"/>
<rect width="87.9452" height="87.9452" transform="matrix(0.866041 0.499972 -0.866041 0.499972 1096.7 241.95)" fill="#AAAAAA"/>
<rect width="87.9452" height="87.9452" transform="matrix(0.86601 0.500028 3.18351e-05 1 1020.53 197.969)" fill="#1F0C3C"/>
<rect width="87.9452" height="87.9452" transform="matrix(0.86601 -0.500028 -3.18351e-05 1 1096.7 241.945)" fill="#2D1466"/>
<rect width="87.9452" height="87.9452" transform="matrix(0.866041 -0.499972 0.866041 0.499972 1020.53 197.979)" fill="#180A33"/>
<rect width="87.9452" height="87.9452" transform="matrix(0.86601 0.500028 3.18351e-05 1 932.607 681.21)" fill="#6E6E6E"/>
<rect width="87.9452" height="87.9452" transform="matrix(0.86601 -0.500028 -3.18351e-05 1 856.446 725.184)" fill="#5A5A5A"/>
<rect width="87.9452" height="87.9452" transform="matrix(0.866041 0.499972 -0.866041 0.499972 932.607 769.15)" fill="#AAAAAA"/>
<rect width="87.9452" height="87.9452" transform="matrix(0.86601 0.500028 3.18351e-05 1 856.443 725.169)" fill="#1F0C3C"/>
<rect width="87.9452" height="87.9452" transform="matrix(0.86601 -0.500028 -3.18351e-05 1 932.608 769.145)" fill="#2D1466"/>
<rect width="87.9452" height="87.9452" transform="matrix(0.866041 -0.499972 0.866041 0.499972 856.443 725.18)" fill="#180A33"/>
<rect width="87.9452" height="87.9452" transform="matrix(0.86601 0.500028 3.18351e-05 1 769.165 681.21)" fill="#6E6E6E"/>
<rect width="87.9452" height="87.9452" transform="matrix(0.86601 -0.500028 -3.18351e-05 1 693.003 725.185)" fill="#5A5A5A"/>
<rect width="87.9452" height="87.9452" transform="matrix(0.866041 0.499972 -0.866041 0.499972 769.165 769.15)" fill="#AAAAAA"/>
<rect width="87.9452" height="87.9452" transform="matrix(0.86601 0.500028 3.18351e-05 1 693 725.169)" fill="#1F0C3C"/>
<rect width="87.9452" height="87.9452" transform="matrix(0.86601 -0.500028 -3.18351e-05 1 769.165 769.146)" fill="#3A1466"/>
<rect width="87.9452" height="87.9452" transform="matrix(0.866041 -0.499972 0.866041 0.499972 693 725.18)" fill="#180A33"/>
<rect width="87.9452" height="87.9452" transform="matrix(0.86601 0.500028 3.18351e-05 1 601.165 681.038)" fill="#6E6E6E"/>
<rect width="87.9452" height="87.9452" transform="matrix(0.86601 -0.500028 -3.18351e-05 1 525.003 725.012)" fill="#5A5A5A"/>
<rect width="87.9452" height="87.9452" transform="matrix(0.866041 0.499972 -0.866041 0.499972 601.165 768.978)" fill="#AAAAAA"/>
<rect width="87.9452" height="87.9452" transform="matrix(0.86601 0.500028 3.18351e-05 1 525 724.997)" fill="#1F0C3C"/>
<rect width="87.9452" height="87.9452" transform="matrix(0.86601 -0.500028 -3.18351e-05 1 601.166 768.973)" fill="#3A1466"/>
<rect width="87.9452" height="87.9452" transform="matrix(0.866041 -0.499972 0.866041 0.499972 525 725.007)" fill="#180A33"/>
<rect width="87.9452" height="87.9452" transform="matrix(0.86601 0.500028 3.18351e-05 1 433.165 681.039)" fill="#6E6E6E"/>
<rect width="87.9452" height="87.9452" transform="matrix(0.86601 -0.500028 -3.18351e-05 1 357.003 725.013)" fill="#5A5A5A"/>
<rect width="87.9452" height="87.9452" transform="matrix(0.866041 0.499972 -0.866041 0.499972 433.165 768.979)" fill="#AAAAAA"/>
<rect width="87.9452" height="87.9452" transform="matrix(0.86601 0.500028 3.18351e-05 1 357 724.998)" fill="#1F0C3C"/>
<rect width="87.9452" height="87.9452" transform="matrix(0.86601 -0.500028 -3.18351e-05 1 433.166 768.974)" fill="#3A1466"/>
<rect width="87.9452" height="87.9452" transform="matrix(0.866041 -0.499972 0.866041 0.499972 357 725.008)" fill="#180A33"/>
<rect width="87.9452" height="87.9452" transform="matrix(0.86601 0.500028 3.18351e-05 1 932.607 575.213)" fill="#6E6E6E"/>
<rect width="87.9452" height="87.9452" transform="matrix(0.86601 -0.500028 -3.18351e-05 1 856.446 619.187)" fill="#5A5A5A"/>
<rect width="87.9452" height="87.9452" transform="matrix(0.866041 0.499972 -0.866041 0.499972 932.607 663.153)" fill="#AAAAAA"/>
<rect width="87.9452" height="87.9452" transform="matrix(0.86601 0.500028 3.18351e-05 1 856.443 619.172)" fill="#1F0C3C"/>
<rect width="87.9452" height="87.9452" transform="matrix(0.86601 -0.500028 -3.18351e-05 1 932.608 663.148)" fill="#2D1466"/>
<rect width="87.9452" height="87.9452" transform="matrix(0.866041 -0.499972 0.866041 0.499972 856.443 619.183)" fill="#180A33"/>
<rect width="87.9452" height="87.9452" transform="matrix(0.86601 0.500028 3.18351e-05 1 769.165 575.213)" fill="#6E6E6E"/>
<rect width="87.9452" height="87.9452" transform="matrix(0.86601 -0.500028 -3.18351e-05 1 693.003 619.188)" fill="#5A5A5A"/>
<rect width="87.9452" height="87.9452" transform="matrix(0.866041 0.499972 -0.866041 0.499972 769.165 663.153)" fill="#AAAAAA"/>
<rect width="87.9452" height="87.9452" transform="matrix(0.86601 0.500028 3.18351e-05 1 693 619.172)" fill="#1F0C3C"/>
<rect width="87.9452" height="87.9452" transform="matrix(0.86601 -0.500028 -3.18351e-05 1 769.165 663.148)" fill="#3A1466"/>
<rect width="87.9452" height="87.9452" transform="matrix(0.866041 -0.499972 0.866041 0.499972 693 619.184)" fill="#180A33"/>
<rect width="87.9452" height="87.9452" transform="matrix(0.86601 0.500028 3.18351e-05 1 601.165 575.041)" fill="#6E6E6E"/>
<rect width="87.9452" height="87.9452" transform="matrix(0.86601 -0.500028 -3.18351e-05 1 525.003 619.015)" fill="#5A5A5A"/>
<rect width="87.9452" height="87.9452" transform="matrix(0.866041 0.499972 -0.866041 0.499972 601.165 662.981)" fill="#AAAAAA"/>
<rect width="87.9452" height="87.9452" transform="matrix(0.86601 0.500028 3.18351e-05 1 525 619)" fill="#1F0C3C"/>
<rect width="87.9452" height="87.9452" transform="matrix(0.86601 -0.500028 -3.18351e-05 1 601.166 662.976)" fill="#3A1466"/>
<rect width="87.9452" height="87.9452" transform="matrix(0.866041 -0.499972 0.866041 0.499972 525 619.011)" fill="#180A33"/>
<rect width="87.9452" height="87.9452" transform="matrix(0.86601 0.500028 3.18351e-05 1 433.165 575.041)" fill="#6E6E6E"/>
<rect width="87.9452" height="87.9452" transform="matrix(0.86601 -0.500028 -3.18351e-05 1 357.003 619.015)" fill="#5A5A5A"/>
<rect width="87.9452" height="87.9452" transform="matrix(0.866041 0.499972 -0.866041 0.499972 433.165 662.981)" fill="#AAAAAA"/>
<rect width="87.9452" height="87.9452" transform="matrix(0.86601 0.500028 3.18351e-05 1 357 619)" fill="#1F0C3C"/>
<rect width="87.9452" height="87.9452" transform="matrix(0.86601 -0.500028 -3.18351e-05 1 433.166 662.976)" fill="#3A1466"/>
<rect width="87.9452" height="87.9452" transform="matrix(0.866041 -0.499972 0.866041 0.499972 357 619.011)" fill="#180A33"/>
<rect width="87.9452" height="87.9452" transform="matrix(0.86601 0.500028 3.18351e-05 1 932.607 470.173)" fill="#6E6E6E"/>
<rect width="87.9452" height="87.9452" transform="matrix(0.86601 -0.500028 -3.18351e-05 1 856.446 514.147)" fill="#5A5A5A"/>
<rect width="87.9452" height="87.9452" transform="matrix(0.866041 0.499972 -0.866041 0.499972 932.607 558.113)" fill="#AAAAAA"/>
<rect width="87.9452" height="87.9452" transform="matrix(0.86601 0.500028 3.18351e-05 1 856.443 514.132)" fill="#1F0C3C"/>
<rect width="87.9452" height="87.9452" transform="matrix(0.86601 -0.500028 -3.18351e-05 1 932.608 558.108)" fill="#2D1466"/>
<rect width="87.9452" height="87.9452" transform="matrix(0.866041 -0.499972 0.866041 0.499972 856.443 514.143)" fill="#180A33"/>
<rect width="87.9452" height="87.9452" transform="matrix(0.86601 0.500028 3.18351e-05 1 769.165 470.173)" fill="#6E6E6E"/>
<rect width="87.9452" height="87.9452" transform="matrix(0.86601 -0.500028 -3.18351e-05 1 693.003 514.147)" fill="#5A5A5A"/>
<rect width="87.9452" height="87.9452" transform="matrix(0.866041 0.499972 -0.866041 0.499972 769.165 558.113)" fill="#AAAAAA"/>
<rect width="87.9452" height="87.9452" transform="matrix(0.86601 0.500028 3.18351e-05 1 693 514.132)" fill="#1F0C3C"/>
<rect width="87.9452" height="87.9452" transform="matrix(0.86601 -0.500028 -3.18351e-05 1 769.165 558.108)" fill="#3A1466"/>
<rect width="87.9452" height="87.9452" transform="matrix(0.866041 -0.499972 0.866041 0.499972 693 514.143)" fill="#180A33"/>
<rect width="87.9452" height="87.9452" transform="matrix(0.86601 0.500028 3.18351e-05 1 601.165 470.001)" fill="#6E6E6E"/>
<rect width="87.9452" height="87.9452" transform="matrix(0.86601 -0.500028 -3.18351e-05 1 525.003 513.975)" fill="#5A5A5A"/>
<rect width="87.9452" height="87.9452" transform="matrix(0.866041 0.499972 -0.866041 0.499972 601.165 557.941)" fill="#AAAAAA"/>
<rect width="87.9452" height="87.9452" transform="matrix(0.86601 0.500028 3.18351e-05 1 525 513.96)" fill="#1F0C3C"/>
<rect width="87.9452" height="87.9452" transform="matrix(0.86601 -0.500028 -3.18351e-05 1 601.166 557.936)" fill="#3A1466"/>
<rect width="87.9452" height="87.9452" transform="matrix(0.866041 -0.499972 0.866041 0.499972 525 513.971)" fill="#180A33"/>
<rect width="87.9452" height="87.9452" transform="matrix(0.86601 0.500028 3.18351e-05 1 433.165 470.002)" fill="#6E6E6E"/>
<rect width="87.9452" height="87.9452" transform="matrix(0.86601 -0.500028 -3.18351e-05 1 357.003 513.976)" fill="#5A5A5A"/>
<rect width="87.9452" height="87.9452" transform="matrix(0.866041 0.499972 -0.866041 0.499972 433.165 557.941)" fill="#AAAAAA"/>
<rect width="87.9452" height="87.9452" transform="matrix(0.86601 0.500028 3.18351e-05 1 357 513.961)" fill="#1F0C3C"/>
<rect width="87.9452" height="87.9452" transform="matrix(0.86601 -0.500028 -3.18351e-05 1 433.166 557.937)" fill="#3A1466"/>
<rect width="87.9452" height="87.9452" transform="matrix(0.866041 -0.499972 0.866041 0.499972 357 513.971)" fill="#180A33"/>
<rect width="87.9452" height="87.9452" transform="matrix(0.86601 0.500028 3.18351e-05 1 932.608 364.696)" fill="#6E6E6E"/>
<rect width="87.9452" height="87.9452" transform="matrix(0.86601 -0.500028 -3.18351e-05 1 856.446 408.67)" fill="#5A5A5A"/>
<rect width="87.9452" height="87.9452" transform="matrix(0.866041 0.499972 -0.866041 0.499972 932.608 452.635)" fill="#AAAAAA"/>
<rect width="87.9452" height="87.9452" transform="matrix(0.86601 0.500028 3.18351e-05 1 856.443 408.655)" fill="#1F0C3C"/>
<rect width="87.9452" height="87.9452" transform="matrix(0.86601 -0.500028 -3.18351e-05 1 932.608 452.631)" fill="#2D1466"/>
<rect width="87.9452" height="87.9452" transform="matrix(0.866041 -0.499972 0.866041 0.499972 856.443 408.665)" fill="#180A33"/>
<rect x="156" y="-4" width="853" height="1044" fill="black" fill-opacity="0.31"/>
<rect x="-9" width="866" height="1035" fill="black" fill-opacity="0.41"/>
<rect x="-173" width="866" height="1044" fill="black" fill-opacity="0.41"/>
<rect width="525" height="1040" fill="black" fill-opacity="0.41"/>
</g>
<rect x="0.5" y="0.5" width="1439" height="1043" stroke="url(#paint0_linear_67_188046)"/>
<defs>
<linearGradient id="paint0_linear_67_188046" x1="720" y1="0" x2="720" y2="1044" gradientUnits="userSpaceOnUse">
<stop/>
<stop offset="1" stop-color="#8269C8"/>
</linearGradient>
<clipPath id="clip0_67_188046">
<rect width="1440" height="1044" fill="white"/>
</clipPath>
</defs>
</svg>
