<svg width="1442" height="1048" viewBox="0 0 1442 1048" fill="none" xmlns="http://www.w3.org/2000/svg">
<g clip-path="url(#clip0_67_127886)">
<rect width="1442" height="1048" fill="url(#paint0_linear_67_127886)"/>
<g opacity="0.4">
<path d="M1436.51 333.541C1542.32 333.541 1628.09 418.97 1628.09 524.345C1628.09 629.719 1542.32 715.149 1436.51 715.149C1330.71 715.149 1244.94 629.719 1244.94 524.345C1244.94 418.971 1330.71 333.541 1436.51 333.541Z" fill="#A57CFF"/>
<path d="M1436.51 333.541C1542.32 333.541 1628.09 418.97 1628.09 524.345C1628.09 629.719 1542.32 715.149 1436.51 715.149C1330.71 715.149 1244.94 629.719 1244.94 524.345C1244.94 418.971 1330.71 333.541 1436.51 333.541Z" fill="url(#paint1_linear_67_127886)" fill-opacity="0.4"/>
<path d="M1436.51 333.541C1542.32 333.541 1628.09 418.97 1628.09 524.345C1628.09 629.719 1542.32 715.149 1436.51 715.149C1330.71 715.149 1244.94 629.719 1244.94 524.345C1244.94 418.971 1330.71 333.541 1436.51 333.541Z" fill="url(#paint2_radial_67_127886)" fill-opacity="0.3"/>
<path d="M1436.51 333.541C1542.32 333.541 1628.09 418.97 1628.09 524.345C1628.09 629.719 1542.32 715.149 1436.51 715.149C1330.71 715.149 1244.94 629.719 1244.94 524.345C1244.94 418.971 1330.71 333.541 1436.51 333.541Z" fill="url(#paint3_radial_67_127886)" fill-opacity="0.6"/>
<path d="M1436.51 333.541C1542.32 333.541 1628.09 418.97 1628.09 524.345C1628.09 629.719 1542.32 715.149 1436.51 715.149C1330.71 715.149 1244.94 629.719 1244.94 524.345C1244.94 418.971 1330.71 333.541 1436.51 333.541Z" stroke="url(#paint4_radial_67_127886)" stroke-width="2"/>
<path d="M1436.51 333.541C1542.32 333.541 1628.09 418.97 1628.09 524.345C1628.09 629.719 1542.32 715.149 1436.51 715.149C1330.71 715.149 1244.94 629.719 1244.94 524.345C1244.94 418.971 1330.71 333.541 1436.51 333.541Z" stroke="url(#paint5_radial_67_127886)" stroke-width="2"/>
<g opacity="0.3">
<path d="M869.574 333.541C975.381 333.541 1061.15 418.97 1061.15 524.345C1061.15 629.719 975.382 715.149 869.574 715.149C763.767 715.149 678 629.719 678 524.345C678 418.971 763.767 333.541 869.574 333.541Z" fill="#A57CFF"/>
<path d="M869.574 333.541C975.381 333.541 1061.15 418.97 1061.15 524.345C1061.15 629.719 975.382 715.149 869.574 715.149C763.767 715.149 678 629.719 678 524.345C678 418.971 763.767 333.541 869.574 333.541Z" fill="url(#paint6_linear_67_127886)" fill-opacity="0.4"/>
<path d="M869.574 333.541C975.381 333.541 1061.15 418.97 1061.15 524.345C1061.15 629.719 975.382 715.149 869.574 715.149C763.767 715.149 678 629.719 678 524.345C678 418.971 763.767 333.541 869.574 333.541Z" fill="url(#paint7_radial_67_127886)" fill-opacity="0.3"/>
<path d="M869.574 333.541C975.381 333.541 1061.15 418.97 1061.15 524.345C1061.15 629.719 975.382 715.149 869.574 715.149C763.767 715.149 678 629.719 678 524.345C678 418.971 763.767 333.541 869.574 333.541Z" fill="url(#paint8_radial_67_127886)" fill-opacity="0.6"/>
<path d="M869.574 333.541C975.381 333.541 1061.15 418.97 1061.15 524.345C1061.15 629.719 975.382 715.149 869.574 715.149C763.767 715.149 678 629.719 678 524.345C678 418.971 763.767 333.541 869.574 333.541Z" stroke="url(#paint9_radial_67_127886)" stroke-width="2"/>
<path d="M869.574 333.541C975.381 333.541 1061.15 418.97 1061.15 524.345C1061.15 629.719 975.382 715.149 869.574 715.149C763.767 715.149 678 629.719 678 524.345C678 418.971 763.767 333.541 869.574 333.541Z" stroke="url(#paint10_radial_67_127886)" stroke-width="2"/>
</g>
<g opacity="0.9">
<path d="M1327.13 333.541C1362.43 333.541 1394.51 354.749 1417.81 389.278C1441.1 423.802 1455.54 471.552 1455.54 524.345C1455.54 577.138 1441.1 624.889 1417.81 659.412C1394.51 693.941 1362.43 715.149 1327.13 715.149C1291.83 715.149 1259.75 693.941 1236.45 659.412C1213.16 624.889 1198.72 577.138 1198.72 524.345C1198.72 471.552 1213.16 423.802 1236.45 389.278C1259.75 354.749 1291.83 333.541 1327.13 333.541Z" fill="#A57CFF"/>
<path d="M1327.13 333.541C1362.43 333.541 1394.51 354.749 1417.81 389.278C1441.1 423.802 1455.54 471.552 1455.54 524.345C1455.54 577.138 1441.1 624.889 1417.81 659.412C1394.51 693.941 1362.43 715.149 1327.13 715.149C1291.83 715.149 1259.75 693.941 1236.45 659.412C1213.16 624.889 1198.72 577.138 1198.72 524.345C1198.72 471.552 1213.16 423.802 1236.45 389.278C1259.75 354.749 1291.83 333.541 1327.13 333.541Z" fill="url(#paint11_linear_67_127886)" fill-opacity="0.2"/>
<path d="M1327.13 333.541C1362.43 333.541 1394.51 354.749 1417.81 389.278C1441.1 423.802 1455.54 471.552 1455.54 524.345C1455.54 577.138 1441.1 624.889 1417.81 659.412C1394.51 693.941 1362.43 715.149 1327.13 715.149C1291.83 715.149 1259.75 693.941 1236.45 659.412C1213.16 624.889 1198.72 577.138 1198.72 524.345C1198.72 471.552 1213.16 423.802 1236.45 389.278C1259.75 354.749 1291.83 333.541 1327.13 333.541Z" fill="url(#paint12_radial_67_127886)" fill-opacity="0.3"/>
<path d="M1327.13 333.541C1362.43 333.541 1394.51 354.749 1417.81 389.278C1441.1 423.802 1455.54 471.552 1455.54 524.345C1455.54 577.138 1441.1 624.889 1417.81 659.412C1394.51 693.941 1362.43 715.149 1327.13 715.149C1291.83 715.149 1259.75 693.941 1236.45 659.412C1213.16 624.889 1198.72 577.138 1198.72 524.345C1198.72 471.552 1213.16 423.802 1236.45 389.278C1259.75 354.749 1291.83 333.541 1327.13 333.541Z" fill="url(#paint13_radial_67_127886)" fill-opacity="0.6"/>
<path d="M1327.13 333.541C1362.43 333.541 1394.51 354.749 1417.81 389.278C1441.1 423.802 1455.54 471.552 1455.54 524.345C1455.54 577.138 1441.1 624.889 1417.81 659.412C1394.51 693.941 1362.43 715.149 1327.13 715.149C1291.83 715.149 1259.75 693.941 1236.45 659.412C1213.16 624.889 1198.72 577.138 1198.72 524.345C1198.72 471.552 1213.16 423.802 1236.45 389.278C1259.75 354.749 1291.83 333.541 1327.13 333.541Z" stroke="url(#paint14_radial_67_127886)" stroke-width="2"/>
<path d="M1327.13 333.541C1362.43 333.541 1394.51 354.749 1417.81 389.278C1441.1 423.802 1455.54 471.552 1455.54 524.345C1455.54 577.138 1441.1 624.889 1417.81 659.412C1394.51 693.941 1362.43 715.149 1327.13 715.149C1291.83 715.149 1259.75 693.941 1236.45 659.412C1213.16 624.889 1198.72 577.138 1198.72 524.345C1198.72 471.552 1213.16 423.802 1236.45 389.278C1259.75 354.749 1291.83 333.541 1327.13 333.541Z" stroke="url(#paint15_radial_67_127886)" stroke-width="2"/>
</g>
<g opacity="0.5">
<path d="M978.957 332C1014.26 332 1046.34 353.208 1069.63 387.737C1092.93 422.261 1107.37 470.011 1107.37 522.804C1107.37 575.597 1092.93 623.348 1069.63 657.871C1046.34 692.4 1014.26 713.608 978.957 713.608C943.654 713.608 911.576 692.4 888.279 657.871C864.986 623.348 850.547 575.597 850.547 522.804C850.547 470.011 864.986 422.261 888.279 387.737C911.576 353.208 943.654 332 978.957 332Z" fill="#A57CFF"/>
<path d="M978.957 332C1014.26 332 1046.34 353.208 1069.63 387.737C1092.93 422.261 1107.37 470.011 1107.37 522.804C1107.37 575.597 1092.93 623.348 1069.63 657.871C1046.34 692.4 1014.26 713.608 978.957 713.608C943.654 713.608 911.576 692.4 888.279 657.871C864.986 623.348 850.547 575.597 850.547 522.804C850.547 470.011 864.986 422.261 888.279 387.737C911.576 353.208 943.654 332 978.957 332Z" fill="url(#paint16_linear_67_127886)" fill-opacity="0.4"/>
<path d="M978.957 332C1014.26 332 1046.34 353.208 1069.63 387.737C1092.93 422.261 1107.37 470.011 1107.37 522.804C1107.37 575.597 1092.93 623.348 1069.63 657.871C1046.34 692.4 1014.26 713.608 978.957 713.608C943.654 713.608 911.576 692.4 888.279 657.871C864.986 623.348 850.547 575.597 850.547 522.804C850.547 470.011 864.986 422.261 888.279 387.737C911.576 353.208 943.654 332 978.957 332Z" fill="url(#paint17_radial_67_127886)" fill-opacity="0.3"/>
<path d="M978.957 332C1014.26 332 1046.34 353.208 1069.63 387.737C1092.93 422.261 1107.37 470.011 1107.37 522.804C1107.37 575.597 1092.93 623.348 1069.63 657.871C1046.34 692.4 1014.26 713.608 978.957 713.608C943.654 713.608 911.576 692.4 888.279 657.871C864.986 623.348 850.547 575.597 850.547 522.804C850.547 470.011 864.986 422.261 888.279 387.737C911.576 353.208 943.654 332 978.957 332Z" fill="url(#paint18_radial_67_127886)" fill-opacity="0.6"/>
<path d="M978.957 332C1014.26 332 1046.34 353.208 1069.63 387.737C1092.93 422.261 1107.37 470.011 1107.37 522.804C1107.37 575.597 1092.93 623.348 1069.63 657.871C1046.34 692.4 1014.26 713.608 978.957 713.608C943.654 713.608 911.576 692.4 888.279 657.871C864.986 623.348 850.547 575.597 850.547 522.804C850.547 470.011 864.986 422.261 888.279 387.737C911.576 353.208 943.654 332 978.957 332Z" stroke="url(#paint19_radial_67_127886)" stroke-width="2"/>
<path d="M978.957 332C1014.26 332 1046.34 353.208 1069.63 387.737C1092.93 422.261 1107.37 470.011 1107.37 522.804C1107.37 575.597 1092.93 623.348 1069.63 657.871C1046.34 692.4 1014.26 713.608 978.957 713.608C943.654 713.608 911.576 692.4 888.279 657.871C864.986 623.348 850.547 575.597 850.547 522.804C850.547 470.011 864.986 422.261 888.279 387.737C911.576 353.208 943.654 332 978.957 332Z" stroke="url(#paint20_radial_67_127886)" stroke-width="2"/>
</g>
<g opacity="0.8">
<path d="M1221.6 333.541C1230.66 333.541 1239.42 338.674 1247.52 348.26C1255.62 357.841 1262.95 371.763 1269.14 389.056C1281.49 423.631 1289.16 471.463 1289.16 524.345C1289.16 577.226 1281.49 625.059 1269.14 659.635C1262.95 676.927 1255.62 690.85 1247.52 700.431C1239.42 710.016 1230.66 715.149 1221.6 715.149C1212.54 715.149 1203.78 710.016 1195.68 700.431C1187.58 690.85 1180.25 676.927 1174.07 659.635C1161.71 625.059 1154.04 577.226 1154.04 524.345C1154.04 471.463 1161.71 423.631 1174.07 389.056C1180.25 371.764 1187.58 357.841 1195.68 348.26C1203.78 338.674 1212.54 333.541 1221.6 333.541Z" fill="#A57CFF"/>
<path d="M1221.6 333.541C1230.66 333.541 1239.42 338.674 1247.52 348.26C1255.62 357.841 1262.95 371.763 1269.14 389.056C1281.49 423.631 1289.16 471.463 1289.16 524.345C1289.16 577.226 1281.49 625.059 1269.14 659.635C1262.95 676.927 1255.62 690.85 1247.52 700.431C1239.42 710.016 1230.66 715.149 1221.6 715.149C1212.54 715.149 1203.78 710.016 1195.68 700.431C1187.58 690.85 1180.25 676.927 1174.07 659.635C1161.71 625.059 1154.04 577.226 1154.04 524.345C1154.04 471.463 1161.71 423.631 1174.07 389.056C1180.25 371.764 1187.58 357.841 1195.68 348.26C1203.78 338.674 1212.54 333.541 1221.6 333.541Z" fill="url(#paint21_linear_67_127886)" fill-opacity="0.2"/>
<path d="M1221.6 333.541C1230.66 333.541 1239.42 338.674 1247.52 348.26C1255.62 357.841 1262.95 371.763 1269.14 389.056C1281.49 423.631 1289.16 471.463 1289.16 524.345C1289.16 577.226 1281.49 625.059 1269.14 659.635C1262.95 676.927 1255.62 690.85 1247.52 700.431C1239.42 710.016 1230.66 715.149 1221.6 715.149C1212.54 715.149 1203.78 710.016 1195.68 700.431C1187.58 690.85 1180.25 676.927 1174.07 659.635C1161.71 625.059 1154.04 577.226 1154.04 524.345C1154.04 471.463 1161.71 423.631 1174.07 389.056C1180.25 371.764 1187.58 357.841 1195.68 348.26C1203.78 338.674 1212.54 333.541 1221.6 333.541Z" fill="url(#paint22_radial_67_127886)" fill-opacity="0.3"/>
<path d="M1221.6 333.541C1230.66 333.541 1239.42 338.674 1247.52 348.26C1255.62 357.841 1262.95 371.763 1269.14 389.056C1281.49 423.631 1289.16 471.463 1289.16 524.345C1289.16 577.226 1281.49 625.059 1269.14 659.635C1262.95 676.927 1255.62 690.85 1247.52 700.431C1239.42 710.016 1230.66 715.149 1221.6 715.149C1212.54 715.149 1203.78 710.016 1195.68 700.431C1187.58 690.85 1180.25 676.927 1174.07 659.635C1161.71 625.059 1154.04 577.226 1154.04 524.345C1154.04 471.463 1161.71 423.631 1174.07 389.056C1180.25 371.764 1187.58 357.841 1195.68 348.26C1203.78 338.674 1212.54 333.541 1221.6 333.541Z" fill="url(#paint23_radial_67_127886)" fill-opacity="0.6"/>
<path d="M1221.6 333.541C1230.66 333.541 1239.42 338.674 1247.52 348.26C1255.62 357.841 1262.95 371.763 1269.14 389.056C1281.49 423.631 1289.16 471.463 1289.16 524.345C1289.16 577.226 1281.49 625.059 1269.14 659.635C1262.95 676.927 1255.62 690.85 1247.52 700.431C1239.42 710.016 1230.66 715.149 1221.6 715.149C1212.54 715.149 1203.78 710.016 1195.68 700.431C1187.58 690.85 1180.25 676.927 1174.07 659.635C1161.71 625.059 1154.04 577.226 1154.04 524.345C1154.04 471.463 1161.71 423.631 1174.07 389.056C1180.25 371.764 1187.58 357.841 1195.68 348.26C1203.78 338.674 1212.54 333.541 1221.6 333.541Z" stroke="url(#paint24_radial_67_127886)" stroke-width="2"/>
<path d="M1221.6 333.541C1230.66 333.541 1239.42 338.674 1247.52 348.26C1255.62 357.841 1262.95 371.763 1269.14 389.056C1281.49 423.631 1289.16 471.463 1289.16 524.345C1289.16 577.226 1281.49 625.059 1269.14 659.635C1262.95 676.927 1255.62 690.85 1247.52 700.431C1239.42 710.016 1230.66 715.149 1221.6 715.149C1212.54 715.149 1203.78 710.016 1195.68 700.431C1187.58 690.85 1180.25 676.927 1174.07 659.635C1161.71 625.059 1154.04 577.226 1154.04 524.345C1154.04 471.463 1161.71 423.631 1174.07 389.056C1180.25 371.764 1187.58 357.841 1195.68 348.26C1203.78 338.674 1212.54 333.541 1221.6 333.541Z" stroke="url(#paint25_radial_67_127886)" stroke-width="2"/>
</g>
<g opacity="0.6">
<path d="M1083.72 333.541C1092.89 333.541 1101.75 338.679 1109.94 348.264C1118.13 357.845 1125.55 371.767 1131.8 389.059C1144.3 423.633 1152.04 471.464 1152.04 524.345C1152.04 577.225 1144.3 625.056 1131.8 659.631C1125.55 676.922 1118.13 690.846 1109.94 700.427C1101.75 710.011 1092.89 715.149 1083.72 715.149C1074.55 715.149 1065.68 710.012 1057.49 700.427C1049.3 690.846 1041.89 676.922 1035.64 659.631C1023.14 625.056 1015.39 577.225 1015.39 524.345C1015.39 471.464 1023.14 423.633 1035.64 389.059C1041.89 371.767 1049.3 357.845 1057.49 348.264C1065.68 338.679 1074.55 333.541 1083.72 333.541Z" fill="#A57CFF"/>
<path d="M1083.72 333.541C1092.89 333.541 1101.75 338.679 1109.94 348.264C1118.13 357.845 1125.55 371.767 1131.8 389.059C1144.3 423.633 1152.04 471.464 1152.04 524.345C1152.04 577.225 1144.3 625.056 1131.8 659.631C1125.55 676.922 1118.13 690.846 1109.94 700.427C1101.75 710.011 1092.89 715.149 1083.72 715.149C1074.55 715.149 1065.68 710.012 1057.49 700.427C1049.3 690.846 1041.89 676.922 1035.64 659.631C1023.14 625.056 1015.39 577.225 1015.39 524.345C1015.39 471.464 1023.14 423.633 1035.64 389.059C1041.89 371.767 1049.3 357.845 1057.49 348.264C1065.68 338.679 1074.55 333.541 1083.72 333.541Z" fill="url(#paint26_linear_67_127886)" fill-opacity="0.4"/>
<path d="M1083.72 333.541C1092.89 333.541 1101.75 338.679 1109.94 348.264C1118.13 357.845 1125.55 371.767 1131.8 389.059C1144.3 423.633 1152.04 471.464 1152.04 524.345C1152.04 577.225 1144.3 625.056 1131.8 659.631C1125.55 676.922 1118.13 690.846 1109.94 700.427C1101.75 710.011 1092.89 715.149 1083.72 715.149C1074.55 715.149 1065.68 710.012 1057.49 700.427C1049.3 690.846 1041.89 676.922 1035.64 659.631C1023.14 625.056 1015.39 577.225 1015.39 524.345C1015.39 471.464 1023.14 423.633 1035.64 389.059C1041.89 371.767 1049.3 357.845 1057.49 348.264C1065.68 338.679 1074.55 333.541 1083.72 333.541Z" fill="url(#paint27_radial_67_127886)" fill-opacity="0.3"/>
<path d="M1083.72 333.541C1092.89 333.541 1101.75 338.679 1109.94 348.264C1118.13 357.845 1125.55 371.767 1131.8 389.059C1144.3 423.633 1152.04 471.464 1152.04 524.345C1152.04 577.225 1144.3 625.056 1131.8 659.631C1125.55 676.922 1118.13 690.846 1109.94 700.427C1101.75 710.011 1092.89 715.149 1083.72 715.149C1074.55 715.149 1065.68 710.012 1057.49 700.427C1049.3 690.846 1041.89 676.922 1035.64 659.631C1023.14 625.056 1015.39 577.225 1015.39 524.345C1015.39 471.464 1023.14 423.633 1035.64 389.059C1041.89 371.767 1049.3 357.845 1057.49 348.264C1065.68 338.679 1074.55 333.541 1083.72 333.541Z" fill="url(#paint28_radial_67_127886)" fill-opacity="0.6"/>
<path d="M1083.72 333.541C1092.89 333.541 1101.75 338.679 1109.94 348.264C1118.13 357.845 1125.55 371.767 1131.8 389.059C1144.3 423.633 1152.04 471.464 1152.04 524.345C1152.04 577.225 1144.3 625.056 1131.8 659.631C1125.55 676.922 1118.13 690.846 1109.94 700.427C1101.75 710.011 1092.89 715.149 1083.72 715.149C1074.55 715.149 1065.68 710.012 1057.49 700.427C1049.3 690.846 1041.89 676.922 1035.64 659.631C1023.14 625.056 1015.39 577.225 1015.39 524.345C1015.39 471.464 1023.14 423.633 1035.64 389.059C1041.89 371.767 1049.3 357.845 1057.49 348.264C1065.68 338.679 1074.55 333.541 1083.72 333.541Z" stroke="url(#paint29_radial_67_127886)" stroke-width="2"/>
<path d="M1083.72 333.541C1092.89 333.541 1101.75 338.679 1109.94 348.264C1118.13 357.845 1125.55 371.767 1131.8 389.059C1144.3 423.633 1152.04 471.464 1152.04 524.345C1152.04 577.225 1144.3 625.056 1131.8 659.631C1125.55 676.922 1118.13 690.846 1109.94 700.427C1101.75 710.011 1092.89 715.149 1083.72 715.149C1074.55 715.149 1065.68 710.012 1057.49 700.427C1049.3 690.846 1041.89 676.922 1035.64 659.631C1023.14 625.056 1015.39 577.225 1015.39 524.345C1015.39 471.464 1023.14 423.633 1035.64 389.059C1041.89 371.767 1049.3 357.845 1057.49 348.264C1065.68 338.679 1074.55 333.541 1083.72 333.541Z" stroke="url(#paint30_radial_67_127886)" stroke-width="2"/>
</g>
<g opacity="0.7">
<path d="M1153.04 333.541C1153.12 333.541 1153.39 333.592 1153.84 334.151C1154.26 334.694 1154.73 335.564 1155.22 336.803C1156.19 339.27 1157.14 342.966 1158.06 347.801C1159.89 357.454 1161.55 371.456 1162.94 388.799C1165.73 423.474 1167.45 471.398 1167.45 524.345C1167.45 577.292 1165.73 625.215 1162.94 659.891C1161.55 677.233 1159.89 691.237 1158.06 700.89C1157.14 705.724 1156.19 709.419 1155.22 711.887C1154.73 713.126 1154.26 713.996 1153.84 714.539C1153.39 715.098 1153.12 715.149 1153.04 715.149C1152.96 715.149 1152.7 715.099 1152.25 714.539C1151.82 713.996 1151.36 713.126 1150.87 711.887C1149.9 709.419 1148.95 705.724 1148.03 700.89C1146.2 691.237 1144.54 677.233 1143.15 659.891C1140.36 625.215 1138.64 577.292 1138.64 524.345C1138.64 471.398 1140.36 423.474 1143.15 388.799C1144.54 371.456 1146.2 357.454 1148.03 347.801C1148.95 342.966 1149.9 339.27 1150.87 336.803C1151.36 335.564 1151.82 334.694 1152.25 334.151C1152.7 333.591 1152.96 333.541 1153.04 333.541Z" fill="#A57CFF"/>
<path d="M1153.04 333.541C1153.12 333.541 1153.39 333.592 1153.84 334.151C1154.26 334.694 1154.73 335.564 1155.22 336.803C1156.19 339.27 1157.14 342.966 1158.06 347.801C1159.89 357.454 1161.55 371.456 1162.94 388.799C1165.73 423.474 1167.45 471.398 1167.45 524.345C1167.45 577.292 1165.73 625.215 1162.94 659.891C1161.55 677.233 1159.89 691.237 1158.06 700.89C1157.14 705.724 1156.19 709.419 1155.22 711.887C1154.73 713.126 1154.26 713.996 1153.84 714.539C1153.39 715.098 1153.12 715.149 1153.04 715.149C1152.96 715.149 1152.7 715.099 1152.25 714.539C1151.82 713.996 1151.36 713.126 1150.87 711.887C1149.9 709.419 1148.95 705.724 1148.03 700.89C1146.2 691.237 1144.54 677.233 1143.15 659.891C1140.36 625.215 1138.64 577.292 1138.64 524.345C1138.64 471.398 1140.36 423.474 1143.15 388.799C1144.54 371.456 1146.2 357.454 1148.03 347.801C1148.95 342.966 1149.9 339.27 1150.87 336.803C1151.36 335.564 1151.82 334.694 1152.25 334.151C1152.7 333.591 1152.96 333.541 1153.04 333.541Z" fill="url(#paint31_linear_67_127886)" fill-opacity="0.4"/>
<path d="M1153.04 333.541C1153.12 333.541 1153.39 333.592 1153.84 334.151C1154.26 334.694 1154.73 335.564 1155.22 336.803C1156.19 339.27 1157.14 342.966 1158.06 347.801C1159.89 357.454 1161.55 371.456 1162.94 388.799C1165.73 423.474 1167.45 471.398 1167.45 524.345C1167.45 577.292 1165.73 625.215 1162.94 659.891C1161.55 677.233 1159.89 691.237 1158.06 700.89C1157.14 705.724 1156.19 709.419 1155.22 711.887C1154.73 713.126 1154.26 713.996 1153.84 714.539C1153.39 715.098 1153.12 715.149 1153.04 715.149C1152.96 715.149 1152.7 715.099 1152.25 714.539C1151.82 713.996 1151.36 713.126 1150.87 711.887C1149.9 709.419 1148.95 705.724 1148.03 700.89C1146.2 691.237 1144.54 677.233 1143.15 659.891C1140.36 625.215 1138.64 577.292 1138.64 524.345C1138.64 471.398 1140.36 423.474 1143.15 388.799C1144.54 371.456 1146.2 357.454 1148.03 347.801C1148.95 342.966 1149.9 339.27 1150.87 336.803C1151.36 335.564 1151.82 334.694 1152.25 334.151C1152.7 333.591 1152.96 333.541 1153.04 333.541Z" fill="url(#paint32_radial_67_127886)" fill-opacity="0.3"/>
<path d="M1153.04 333.541C1153.12 333.541 1153.39 333.592 1153.84 334.151C1154.26 334.694 1154.73 335.564 1155.22 336.803C1156.19 339.27 1157.14 342.966 1158.06 347.801C1159.89 357.454 1161.55 371.456 1162.94 388.799C1165.73 423.474 1167.45 471.398 1167.45 524.345C1167.45 577.292 1165.73 625.215 1162.94 659.891C1161.55 677.233 1159.89 691.237 1158.06 700.89C1157.14 705.724 1156.19 709.419 1155.22 711.887C1154.73 713.126 1154.26 713.996 1153.84 714.539C1153.39 715.098 1153.12 715.149 1153.04 715.149C1152.96 715.149 1152.7 715.099 1152.25 714.539C1151.82 713.996 1151.36 713.126 1150.87 711.887C1149.9 709.419 1148.95 705.724 1148.03 700.89C1146.2 691.237 1144.54 677.233 1143.15 659.891C1140.36 625.215 1138.64 577.292 1138.64 524.345C1138.64 471.398 1140.36 423.474 1143.15 388.799C1144.54 371.456 1146.2 357.454 1148.03 347.801C1148.95 342.966 1149.9 339.27 1150.87 336.803C1151.36 335.564 1151.82 334.694 1152.25 334.151C1152.7 333.591 1152.96 333.541 1153.04 333.541Z" stroke="url(#paint33_radial_67_127886)" stroke-width="2"/>
<path d="M1153.04 333.541C1153.12 333.541 1153.39 333.592 1153.84 334.151C1154.26 334.694 1154.73 335.564 1155.22 336.803C1156.19 339.27 1157.14 342.966 1158.06 347.801C1159.89 357.454 1161.55 371.456 1162.94 388.799C1165.73 423.474 1167.45 471.398 1167.45 524.345C1167.45 577.292 1165.73 625.215 1162.94 659.891C1161.55 677.233 1159.89 691.237 1158.06 700.89C1157.14 705.724 1156.19 709.419 1155.22 711.887C1154.73 713.126 1154.26 713.996 1153.84 714.539C1153.39 715.098 1153.12 715.149 1153.04 715.149C1152.96 715.149 1152.7 715.099 1152.25 714.539C1151.82 713.996 1151.36 713.126 1150.87 711.887C1149.9 709.419 1148.95 705.724 1148.03 700.89C1146.2 691.237 1144.54 677.233 1143.15 659.891C1140.36 625.215 1138.64 577.292 1138.64 524.345C1138.64 471.398 1140.36 423.474 1143.15 388.799C1144.54 371.456 1146.2 357.454 1148.03 347.801C1148.95 342.966 1149.9 339.27 1150.87 336.803C1151.36 335.564 1151.82 334.694 1152.25 334.151C1152.7 333.591 1152.96 333.541 1153.04 333.541Z" stroke="url(#paint34_radial_67_127886)" stroke-width="2"/>
</g>
</g>
</g>
<rect x="0.5" y="0.5" width="1441" height="1047" stroke="url(#paint35_linear_67_127886)"/>
<defs>
<linearGradient id="paint0_linear_67_127886" x1="1191.56" y1="672.103" x2="215.321" y2="793.735" gradientUnits="userSpaceOnUse">
<stop stop-color="#140A39"/>
<stop offset="1"/>
</linearGradient>
<linearGradient id="paint1_linear_67_127886" x1="1629.09" y1="524.345" x2="1317.89" y2="524.345" gradientUnits="userSpaceOnUse">
<stop stop-color="#6963FF"/>
<stop offset="1" stop-color="#390251"/>
</linearGradient>
<radialGradient id="paint2_radial_67_127886" cx="0" cy="0" r="1" gradientUnits="userSpaceOnUse" gradientTransform="translate(1436.77 749.715) rotate(-90) scale(183.413 222.126)">
<stop stop-color="#8FDCFF"/>
<stop offset="1" stop-color="#D3F5FF" stop-opacity="0"/>
</radialGradient>
<radialGradient id="paint3_radial_67_127886" cx="0" cy="0" r="1" gradientUnits="userSpaceOnUse" gradientTransform="translate(1340.23 523.575) rotate(180) scale(181.79 279.66)">
<stop stop-color="#01001C"/>
<stop offset="1" stop-opacity="0"/>
</radialGradient>
<radialGradient id="paint4_radial_67_127886" cx="0" cy="0" r="1" gradientUnits="userSpaceOnUse" gradientTransform="translate(1361.2 332.541) rotate(71.5301) scale(305.016 349.285)">
<stop stop-color="white"/>
<stop offset="1" stop-color="#1B1D54" stop-opacity="0.5"/>
</radialGradient>
<radialGradient id="paint5_radial_67_127886" cx="0" cy="0" r="1" gradientUnits="userSpaceOnUse" gradientTransform="translate(1583.01 628.772) rotate(-118.777) scale(224.301 298.291)">
<stop stop-color="white"/>
<stop offset="1" stop-color="#1B1D54" stop-opacity="0"/>
</radialGradient>
<linearGradient id="paint6_linear_67_127886" x1="1062.15" y1="524.345" x2="750.949" y2="524.345" gradientUnits="userSpaceOnUse">
<stop stop-color="#390251"/>
<stop offset="1" stop-color="#2484EB"/>
</linearGradient>
<radialGradient id="paint7_radial_67_127886" cx="0" cy="0" r="1" gradientUnits="userSpaceOnUse" gradientTransform="translate(869.827 749.715) rotate(-90) scale(183.413 222.126)">
<stop stop-color="#8FDCFF"/>
<stop offset="1" stop-color="#D3F5FF" stop-opacity="0"/>
</radialGradient>
<radialGradient id="paint8_radial_67_127886" cx="0" cy="0" r="1" gradientUnits="userSpaceOnUse" gradientTransform="translate(1017.47 535.9) scale(276.537 425.415)">
<stop stop-color="#01001C"/>
<stop offset="1" stop-opacity="0"/>
</radialGradient>
<radialGradient id="paint9_radial_67_127886" cx="0" cy="0" r="1" gradientUnits="userSpaceOnUse" gradientTransform="translate(794.264 332.541) rotate(71.5301) scale(305.016 349.285)">
<stop stop-color="white"/>
<stop offset="1" stop-color="#1B1D54" stop-opacity="0.5"/>
</radialGradient>
<radialGradient id="paint10_radial_67_127886" cx="0" cy="0" r="1" gradientUnits="userSpaceOnUse" gradientTransform="translate(1016.07 628.772) rotate(-118.777) scale(224.301 298.291)">
<stop stop-color="white"/>
<stop offset="1" stop-color="#1B1D54" stop-opacity="0"/>
</radialGradient>
<linearGradient id="paint11_linear_67_127886" x1="1456.54" y1="524.345" x2="1197.72" y2="524.345" gradientUnits="userSpaceOnUse">
<stop stop-opacity="0"/>
<stop offset="1" stop-color="#2B0058"/>
</linearGradient>
<radialGradient id="paint12_radial_67_127886" cx="0" cy="0" r="1" gradientUnits="userSpaceOnUse" gradientTransform="translate(1327.3 749.715) rotate(-90) scale(183.413 149.269)">
<stop stop-color="#8FDCFF"/>
<stop offset="1" stop-color="#D3F5FF" stop-opacity="0"/>
</radialGradient>
<radialGradient id="paint13_radial_67_127886" cx="0" cy="0" r="1" gradientUnits="userSpaceOnUse" gradientTransform="translate(1240.86 523.575) rotate(180) scale(122.477 280.379)">
<stop stop-color="#01001C"/>
<stop offset="1" stop-opacity="0"/>
</radialGradient>
<radialGradient id="paint14_radial_67_127886" cx="0" cy="0" r="1" gradientUnits="userSpaceOnUse" gradientTransform="translate(1276.52 332.541) rotate(77.3493) scale(296.503 241.459)">
<stop stop-color="white"/>
<stop offset="1" stop-color="#1B1D54" stop-opacity="0.5"/>
</radialGradient>
<radialGradient id="paint15_radial_67_127886" cx="0" cy="0" r="1" gradientUnits="userSpaceOnUse" gradientTransform="translate(1425.58 628.772) rotate(-110.258) scale(209.563 214.548)">
<stop stop-color="white"/>
<stop offset="1" stop-color="#1B1D54" stop-opacity="0"/>
</radialGradient>
<linearGradient id="paint16_linear_67_127886" x1="1108.37" y1="522.804" x2="899.24" y2="522.804" gradientUnits="userSpaceOnUse">
<stop stop-color="#390251"/>
<stop offset="1" stop-color="#2484EB"/>
</linearGradient>
<radialGradient id="paint17_radial_67_127886" cx="0" cy="0" r="1" gradientUnits="userSpaceOnUse" gradientTransform="translate(979.127 748.174) rotate(-90) scale(183.413 149.269)">
<stop stop-color="#8FDCFF"/>
<stop offset="1" stop-color="#D3F5FF" stop-opacity="0"/>
</radialGradient>
<radialGradient id="paint18_radial_67_127886" cx="0" cy="0" r="1" gradientUnits="userSpaceOnUse" gradientTransform="translate(1076.78 522.034) scale(116.315 266.272)">
<stop stop-color="#01001C"/>
<stop offset="1" stop-opacity="0"/>
</radialGradient>
<radialGradient id="paint19_radial_67_127886" cx="0" cy="0" r="1" gradientUnits="userSpaceOnUse" gradientTransform="translate(928.348 331) rotate(77.3493) scale(296.503 241.459)">
<stop stop-color="white"/>
<stop offset="1" stop-color="#1B1D54" stop-opacity="0.5"/>
</radialGradient>
<radialGradient id="paint20_radial_67_127886" cx="0" cy="0" r="1" gradientUnits="userSpaceOnUse" gradientTransform="translate(1077.4 627.231) rotate(-110.258) scale(209.563 214.548)">
<stop stop-color="white"/>
<stop offset="1" stop-color="#1B1D54" stop-opacity="0"/>
</radialGradient>
<linearGradient id="paint21_linear_67_127886" x1="1290.16" y1="524.345" x2="1153.04" y2="524.345" gradientUnits="userSpaceOnUse">
<stop stop-opacity="0"/>
<stop offset="1" stop-color="#2B0058"/>
</linearGradient>
<radialGradient id="paint22_radial_67_127886" cx="0" cy="0" r="1" gradientUnits="userSpaceOnUse" gradientTransform="translate(1221.69 749.715) rotate(-90) scale(183.413 79.0768)">
<stop stop-color="#8FDCFF"/>
<stop offset="1" stop-color="#D3F5FF" stop-opacity="0"/>
</radialGradient>
<radialGradient id="paint23_radial_67_127886" cx="0" cy="0" r="1" gradientUnits="userSpaceOnUse" gradientTransform="translate(1175.9 523.575) rotate(-180) scale(81.3948 351.727)">
<stop stop-color="#01001C"/>
<stop offset="1" stop-opacity="0"/>
</radialGradient>
<radialGradient id="paint24_radial_67_127886" cx="0" cy="0" r="1" gradientUnits="userSpaceOnUse" gradientTransform="translate(1194.79 332.541) rotate(83.2189) scale(291.343 130.181)">
<stop stop-color="white"/>
<stop offset="1" stop-color="#1B1D54" stop-opacity="0.5"/>
</radialGradient>
<radialGradient id="paint25_radial_67_127886" cx="0" cy="0" r="1" gradientUnits="userSpaceOnUse" gradientTransform="translate(1273.75 628.772) rotate(-101.063) scale(200.322 118.903)">
<stop stop-color="white"/>
<stop offset="1" stop-color="#1B1D54" stop-opacity="0"/>
</radialGradient>
<linearGradient id="paint26_linear_67_127886" x1="1153.04" y1="524.345" x2="1041.01" y2="524.345" gradientUnits="userSpaceOnUse">
<stop stop-color="#390251"/>
<stop offset="1" stop-color="#2484EB"/>
</linearGradient>
<radialGradient id="paint27_radial_67_127886" cx="0" cy="0" r="1" gradientUnits="userSpaceOnUse" gradientTransform="translate(1083.81 749.715) rotate(-90) scale(183.413 79.9653)">
<stop stop-color="#8FDCFF"/>
<stop offset="1" stop-color="#D3F5FF" stop-opacity="0"/>
</radialGradient>
<radialGradient id="paint28_radial_67_127886" cx="0" cy="0" r="1" gradientUnits="userSpaceOnUse" gradientTransform="translate(1127.62 523.575) scale(67.7862 289.667)">
<stop stop-color="#01001C"/>
<stop offset="1" stop-opacity="0"/>
</radialGradient>
<radialGradient id="paint29_radial_67_127886" cx="0" cy="0" r="1" gradientUnits="userSpaceOnUse" gradientTransform="translate(1056.61 332.541) rotate(83.1434) scale(291.388 131.623)">
<stop stop-color="white"/>
<stop offset="1" stop-color="#1B1D54" stop-opacity="0.5"/>
</radialGradient>
<radialGradient id="paint30_radial_67_127886" cx="0" cy="0" r="1" gradientUnits="userSpaceOnUse" gradientTransform="translate(1136.46 628.772) rotate(-101.185) scale(200.405 120.189)">
<stop stop-color="white"/>
<stop offset="1" stop-color="#1B1D54" stop-opacity="0"/>
</radialGradient>
<linearGradient id="paint31_linear_67_127886" x1="1168.45" y1="524.345" x2="1143.55" y2="524.345" gradientUnits="userSpaceOnUse">
<stop stop-color="#2484EB"/>
<stop offset="1" stop-color="#390251"/>
</linearGradient>
<radialGradient id="paint32_radial_67_127886" cx="0" cy="0" r="1" gradientUnits="userSpaceOnUse" gradientTransform="translate(1153.06 749.715) rotate(-90) scale(183.413 17.7701)">
<stop stop-color="#8FDCFF"/>
<stop offset="1" stop-color="#D3F5FF" stop-opacity="0"/>
</radialGradient>
<radialGradient id="paint33_radial_67_127886" cx="0" cy="0" r="1" gradientUnits="userSpaceOnUse" gradientTransform="translate(1147.02 332.541) rotate(88.4694) scale(289.408 29.4498)">
<stop stop-color="white"/>
<stop offset="1" stop-color="#1B1D54" stop-opacity="0.5"/>
</radialGradient>
<radialGradient id="paint34_radial_67_127886" cx="0" cy="0" r="1" gradientUnits="userSpaceOnUse" gradientTransform="translate(1164.76 628.772) rotate(-92.5159) scale(196.789 27.1994)">
<stop stop-color="white"/>
<stop offset="1" stop-color="#1B1D54" stop-opacity="0"/>
</radialGradient>
<linearGradient id="paint35_linear_67_127886" x1="721" y1="0" x2="721" y2="1048" gradientUnits="userSpaceOnUse">
<stop/>
<stop offset="1" stop-color="#8269C8"/>
</linearGradient>
<clipPath id="clip0_67_127886">
<rect width="1442" height="1048" fill="white"/>
</clipPath>
</defs>
</svg>
